<svg xmlns="http://www.w3.org/2000/svg" xmlns:xlink="http://www.w3.org/1999/xlink" width="377" zoomAndPan="magnify" viewBox="0 0 283.5 283.500005" height="377" preserveAspectRatio="xMidYMid meet" version="1.0"><defs><g/><clipPath id="fb35367e24"><path d="M 0 0 L 282.964844 0 L 282.964844 282.964844 L 0 282.964844 Z M 0 0 " clip-rule="nonzero"/></clipPath><clipPath id="de56c4de1e"><path d="M 141.484375 0 C 63.34375 0 0 63.34375 0 141.484375 C 0 219.621094 63.34375 282.964844 141.484375 282.964844 C 219.621094 282.964844 282.964844 219.621094 282.964844 141.484375 C 282.964844 63.34375 219.621094 0 141.484375 0 Z M 141.484375 0 " clip-rule="nonzero"/></clipPath><clipPath id="d4c0c6b643"><path d="M 0 0 L 282.953125 0 L 282.953125 282.953125 L 0 282.953125 Z M 0 0 " clip-rule="nonzero"/></clipPath><clipPath id="bc1ca1d80b"><path d="M 141.476562 0 C 63.339844 0 0 63.339844 0 141.476562 C 0 219.613281 63.339844 282.953125 141.476562 282.953125 C 219.613281 282.953125 282.953125 219.613281 282.953125 141.476562 C 282.953125 63.339844 219.613281 0 141.476562 0 Z M 141.476562 0 " clip-rule="nonzero"/></clipPath><clipPath id="bc00c4fc68"><path d="M 52 75.863281 L 231.816406 75.863281 L 231.816406 206.882812 L 52 206.882812 Z M 52 75.863281 " clip-rule="nonzero"/></clipPath></defs><path fill="#ffffff" d="M 0 0 L 283 0 L 283 283 L 0 283 Z M 0 0 " fill-opacity="1" fill-rule="nonzero"/><path fill="#ffffff" d="M 0 0 L 283 0 L 283 283 L 0 283 Z M 0 0 " fill-opacity="1" fill-rule="nonzero"/><g clip-path="url(#fb35367e24)"><g clip-path="url(#de56c4de1e)"><path fill="#ffeeee" d="M 0 0 L 282.964844 0 L 282.964844 282.964844 L 0 282.964844 Z M 0 0 " fill-opacity="1" fill-rule="nonzero"/></g></g><g clip-path="url(#d4c0c6b643)"><g clip-path="url(#bc1ca1d80b)"><path stroke-linecap="butt" transform="matrix(0.74868, 0, 0, 0.74868, 0.000000000000021279, 0.0000124824)" fill="none" stroke-linejoin="miter" d="M 188.968115 -0.0000166725 C 84.602076 -0.0000166725 -0.000000000000028422 84.602059 -0.000000000000028422 188.968098 C -0.000000000000028422 293.334137 84.602076 377.936213 188.968115 377.936213 C 293.334154 377.936213 377.93623 293.334137 377.93623 188.968098 C 377.93623 84.602059 293.334154 -0.0000166725 188.968115 -0.0000166725 Z M 188.968115 -0.0000166725 " stroke="#f8c5b4" stroke-width="12" stroke-opacity="1" stroke-miterlimit="4"/></g></g><g fill="#13292a" fill-opacity="1"><g transform="translate(63.582884, 67.535117)"><g><path d="M 3.011719 -2.066406 C 3.214844 -2.230469 3.339844 -2.40625 3.457031 -2.539062 C 3.574219 -2.671875 3.648438 -2.769531 3.785156 -2.882812 C 3.921875 -2.992188 4.058594 -3.101562 4.238281 -3.210938 C 4.375 -3.320312 4.550781 -3.425781 4.710938 -3.558594 C 5.875 -4.5 6.828125 -5.652344 7.480469 -6.898438 C 9.789062 -11.039062 8.867188 -16.1875 5.371094 -19.097656 C 1.882812 -22.046875 -3.441406 -22.226562 -6.839844 -19.472656 C -8.078125 -18.390625 -10.367188 -15.25 -9.523438 -13.742188 C -9.328125 -13.410156 -9.089844 -13.074219 -8.851562 -12.777344 C -8.40625 -12.230469 -7.859375 -11.691406 -7.367188 -11.179688 C -7.007812 -10.832031 -6.707031 -10.507812 -6.390625 -10.160156 C -5.609375 -9.246094 -3.144531 -6.484375 -1.429688 -4.511719 C -0.660156 -3.660156 -0.046875 -2.949219 0.253906 -2.625 C 1.164062 -1.546875 2.121094 -1.34375 3.011719 -2.066406 Z M 2.566406 -6.617188 L 2.070312 -6.253906 C 0.875 -7.589844 -0.296875 -8.941406 -1.496094 -10.277344 C -2.820312 -11.769531 -4.105469 -13.261719 -5.414062 -14.734375 C -5.75 -15.101562 -5.410156 -15.757812 -4.453125 -16.53125 C -3.199219 -17.550781 -1.703125 -17.894531 -0.00390625 -17.570312 C 1.492188 -17.3125 2.710938 -16.597656 3.597656 -15.503906 C 5.746094 -12.859375 5.28125 -8.820312 2.566406 -6.617188 Z M 2.566406 -6.617188 "/></g></g></g><g fill="#13292a" fill-opacity="1"><g transform="translate(78.695978, 55.668283)"><g><path d="M 5.507812 -2.851562 C 6.34375 -3.335938 7.027344 -3.96875 7.535156 -4.738281 C 9.214844 -7.167969 9.199219 -10.824219 7.507812 -13.742188 C 7.199219 -14.277344 6.785156 -14.816406 6.320312 -15.328125 C 6.203125 -15.464844 4.902344 -16.542969 4.375 -16.746094 C 3.660156 -17.046875 2.828125 -17.140625 1.78125 -17.007812 C 0.6875 -16.851562 -0.34375 -16.523438 -1.207031 -16.023438 C -2.070312 -15.523438 -2.753906 -14.890625 -3.285156 -14.105469 C -4.855469 -11.839844 -4.765625 -8.230469 -3.089844 -5.332031 C -2.75 -4.75 -2.335938 -4.210938 -1.902344 -3.75 C 0.03125 -1.816406 3.09375 -1.453125 5.507812 -2.851562 Z M 4.042969 -6.140625 C 2.554688 -5.074219 0.960938 -5.542969 -0.0390625 -7.269531 C -0.199219 -7.550781 -0.367188 -7.894531 -0.5 -8.359375 C -1.160156 -10.554688 -0.734375 -12.160156 0.664062 -12.96875 L 0.816406 -13.058594 C 0.882812 -13.0625 0.933594 -13.089844 1.007812 -13.132812 C 2.230469 -13.605469 2.84375 -13.65625 2.964844 -13.386719 C 3.160156 -12.992188 3.601562 -12.636719 4.109375 -12.523438 C 4.121094 -12.5625 4.382812 -12.171875 4.722656 -11.351562 C 5.523438 -9.203125 5.265625 -7.1875 4.042969 -6.140625 Z M 4.042969 -6.140625 "/></g></g></g><g fill="#13292a" fill-opacity="1"><g transform="translate(92.83462, 47.623074)"><g><path d="M 4.199219 -0.953125 C 5.289062 -1.382812 5.578125 -2.253906 5.085938 -3.511719 C 4.894531 -4.003906 4.460938 -4.78125 3.792969 -6 L 1.742188 -9.859375 C 1.445312 -10.375 3.066406 -12.589844 4.625 -13.675781 C 4.730469 -13.808594 5.359375 -13.898438 6.289062 -13.855469 C 6.84375 -13.566406 7.335938 -12.878906 7.734375 -11.867188 C 7.882812 -11.484375 8.003906 -11.089844 8.128906 -10.699219 C 8.269531 -10.34375 8.378906 -9.976562 8.507812 -9.648438 C 8.796875 -8.910156 9.003906 -8.390625 9.179688 -7.863281 C 9.371094 -7.371094 9.550781 -6.839844 9.847656 -6.074219 C 10.019531 -5.636719 10.203125 -5.332031 10.4375 -5.140625 C 10.953125 -4.710938 11.636719 -4.570312 12.265625 -4.816406 C 13.058594 -5.128906 13.523438 -5.878906 13.394531 -6.679688 C 13.269531 -7.480469 13.183594 -7.699219 11.988281 -10.667969 C 11.707031 -11.378906 11.347656 -12.214844 10.941406 -13.253906 C 10.660156 -13.964844 10.34375 -14.691406 9.890625 -15.363281 C 8.601562 -17.285156 5.972656 -17.957031 3.539062 -17 C 1.902344 -16.355469 0.675781 -15.054688 -0.308594 -13.628906 C -0.808594 -14.503906 -1.554688 -15.597656 -2.753906 -15.125 C -3.875 -14.6875 -4.234375 -13.757812 -3.773438 -12.582031 C -3.59375 -12.117188 -3.277344 -11.640625 -3.0625 -11.253906 C -2.914062 -11.027344 -2.808594 -10.847656 -2.71875 -10.695312 L -1.269531 -8.046875 C -0.40625 -6.496094 0.414062 -5.050781 1.328125 -3.203125 C 1.742188 -2.386719 2.503906 -0.289062 4.199219 -0.953125 Z M 4.199219 -0.953125 "/></g></g></g><g fill="#13292a" fill-opacity="1"><g transform="translate(109.796803, 41.422571)"><g><path d="M -0.757812 -16.515625 C 0.125 -16.746094 0.664062 -17.707031 0.417969 -18.644531 C 0.394531 -18.726562 0.367188 -18.839844 0.300781 -18.976562 C 0.183594 -19.1875 0.0898438 -19.4375 -0.046875 -19.734375 C -0.472656 -20.777344 -1.0625 -22.230469 -2.230469 -22.410156 C -2.453125 -22.445312 -2.667969 -22.449219 -2.894531 -22.390625 C -3.773438 -22.160156 -4.3125 -21.199219 -4.070312 -20.261719 C -4.046875 -20.179688 -4.015625 -20.066406 -3.953125 -19.929688 C -3.835938 -19.71875 -3.742188 -19.46875 -3.601562 -19.171875 C -3.179688 -18.128906 -2.585938 -16.675781 -1.417969 -16.496094 C -1.199219 -16.460938 -0.984375 -16.457031 -0.757812 -16.515625 Z M -0.757812 -16.515625 "/></g></g></g><g fill="#13292a" fill-opacity="1"><g transform="translate(118.545231, 39.160705)"><g><path d="M 6.972656 -0.996094 C 7.613281 -1.480469 7.8125 -2.105469 7.667969 -3.035156 C 7.609375 -3.410156 7.4375 -4.125 7.21875 -4.953125 C 6.933594 -6.039062 6.613281 -7.324219 6.480469 -8.195312 C 6.070312 -10.835938 5.921875 -11.40625 5.847656 -11.691406 C 5.800781 -11.804688 5.789062 -11.859375 5.777344 -11.949219 C 5.773438 -11.976562 5.714844 -11.96875 5.972656 -12.039062 L 6.320312 -12.089844 C 6.777344 -12.191406 7.359375 -12.28125 7.792969 -12.558594 C 8.335938 -12.878906 8.621094 -13.519531 8.523438 -14.15625 C 8.355469 -15.230469 7.351562 -15.964844 6.34375 -15.75 L 5.347656 -15.476562 C 5.347656 -16.039062 5.378906 -16.609375 5.410156 -17.179688 C 5.445312 -17.71875 5.480469 -18.257812 5.480469 -18.824219 C 5.429688 -19.914062 4.34375 -20.785156 3.269531 -20.617188 C 1.414062 -20.328125 1.839844 -16.832031 1.894531 -15.710938 L 1.96875 -15.246094 C 2.035156 -14.8125 2.058594 -14.667969 1.800781 -14.597656 L -0.203125 -14.109375 C -1.082031 -13.851562 -1.578125 -13.03125 -1.4375 -12.105469 C -1.269531 -11.03125 -0.425781 -10.566406 0.996094 -10.789062 C 1.433594 -10.855469 1.859375 -10.980469 2.203125 -11.066406 C 2.289062 -11.078125 2.371094 -11.121094 2.457031 -11.136719 C 2.75 -9.457031 3.394531 -6.054688 3.738281 -4.621094 L 3.859375 -3.835938 C 3.972656 -2.90625 4.15625 -1.539062 4.808594 -0.984375 C 5.386719 -0.511719 6.308594 -0.503906 6.972656 -0.996094 Z M 6.972656 -0.996094 "/></g></g></g><g fill="#13292a" fill-opacity="1"><g transform="translate(132.170602, 37.286215)"><g/></g></g><g fill="#13292a" fill-opacity="1"><g transform="translate(142.224403, 36.839659)"><g><path d="M 7.027344 0.484375 C 7.753906 0.144531 8.078125 -0.425781 8.132812 -1.363281 C 8.152344 -1.746094 8.136719 -2.480469 8.097656 -3.335938 C 8.042969 -4.457031 8 -5.78125 8.046875 -6.660156 C 8.199219 -9.328125 8.171875 -9.917969 8.160156 -10.210938 C 8.136719 -10.332031 8.140625 -10.390625 8.144531 -10.476562 C 8.148438 -10.507812 8.089844 -10.511719 8.355469 -10.523438 L 8.707031 -10.503906 C 9.175781 -10.507812 9.761719 -10.472656 10.242188 -10.652344 C 10.84375 -10.855469 11.257812 -11.417969 11.292969 -12.0625 C 11.355469 -13.148438 10.523438 -14.078125 9.496094 -14.074219 L 8.464844 -14.015625 C 8.582031 -14.570312 8.730469 -15.117188 8.878906 -15.667969 C 9.027344 -16.191406 9.171875 -16.710938 9.292969 -17.261719 C 9.472656 -18.339844 8.589844 -19.417969 7.507812 -19.480469 C 5.632812 -19.585938 5.316406 -16.074219 5.136719 -14.96875 L 5.109375 -14.5 C 5.085938 -14.058594 5.078125 -13.914062 4.8125 -13.898438 L 2.75 -13.839844 C 1.835938 -13.773438 1.179688 -13.074219 1.125 -12.136719 C 1.0625 -11.054688 1.792969 -10.421875 3.230469 -10.34375 C 3.667969 -10.316406 4.109375 -10.351562 4.464844 -10.363281 C 4.550781 -10.355469 4.640625 -10.378906 4.730469 -10.375 C 4.664062 -8.675781 4.585938 -5.210938 4.621094 -3.738281 L 4.574219 -2.945312 C 4.492188 -2.011719 4.386719 -0.632812 4.90625 0.0429688 C 5.375 0.625 6.273438 0.824219 7.027344 0.484375 Z M 7.027344 0.484375 "/></g></g></g><g fill="#13292a" fill-opacity="1"><g transform="translate(155.791433, 37.681409)"><g><path d="M 6.027344 1.449219 C 6.980469 1.632812 7.914062 1.601562 8.796875 1.351562 C 11.65625 0.613281 14.039062 -2.160156 14.671875 -5.476562 C 14.789062 -6.082031 14.828125 -6.761719 14.808594 -7.453125 C 14.8125 -7.628906 14.535156 -9.296875 14.269531 -9.796875 C 13.925781 -10.488281 13.355469 -11.105469 12.480469 -11.691406 C 11.550781 -12.289062 10.554688 -12.714844 9.574219 -12.902344 C 8.59375 -13.089844 7.664062 -13.058594 6.75 -12.816406 C 4.078125 -12.128906 1.785156 -9.339844 1.15625 -6.054688 C 1.03125 -5.390625 0.988281 -4.710938 1.019531 -4.078125 C 1.214844 -1.351562 3.289062 0.925781 6.027344 1.449219 Z M 7.074219 -1.996094 C 5.253906 -2.164062 4.355469 -3.5625 4.730469 -5.523438 C 4.789062 -5.839844 4.890625 -6.207031 5.09375 -6.648438 C 6.03125 -8.738281 7.40625 -9.671875 8.992188 -9.371094 L 9.164062 -9.335938 C 9.214844 -9.296875 9.273438 -9.285156 9.359375 -9.269531 C 10.589844 -8.824219 11.089844 -8.460938 11.003906 -8.179688 C 10.894531 -7.75 10.996094 -7.195312 11.304688 -6.777344 C 11.339844 -6.800781 11.28125 -6.332031 11 -5.488281 C 10.199219 -3.339844 8.6875 -1.988281 7.074219 -1.996094 Z M 7.074219 -1.996094 "/></g></g></g><g fill="#13292a" fill-opacity="1"><g transform="translate(171.766649, 40.900961)"><g><path d="M 5.84375 2.589844 C 10.308594 4.136719 14.710938 0.226562 16.136719 -3.875 C 16.53125 -5.011719 16.699219 -6.039062 16.636719 -7.027344 C 16.621094 -7.871094 16.128906 -8.601562 15.351562 -8.871094 C 14.769531 -9.070312 14.183594 -8.996094 13.648438 -8.621094 C 13.292969 -8.402344 13.066406 -8.109375 12.941406 -7.75 C 12.78125 -7.277344 12.792969 -6.960938 12.789062 -6.683594 C 12.8125 -6.300781 12.835938 -5.921875 12.507812 -4.980469 C 12.058594 -3.675781 11.199219 -2.542969 10.085938 -1.75 C 8.867188 -0.929688 7.945312 -0.785156 6.734375 -1.234375 C 5.867188 -2.3125 6.71875 -4.410156 7.125 -5.761719 C 7.359375 -6.519531 7.609375 -7.238281 7.878906 -8.015625 C 7.9375 -8.183594 8.019531 -8.339844 8.117188 -8.523438 C 8.25 -8.820312 8.402344 -9.167969 8.519531 -9.503906 C 8.605469 -9.75 8.644531 -9.957031 8.695312 -10.1875 C 8.789062 -11.085938 8.269531 -11.917969 7.382812 -12.226562 C 6.828125 -12.417969 6.214844 -12.351562 5.765625 -12.042969 C 5.230469 -11.667969 4.84375 -11.089844 4.507812 -10.117188 C 4.34375 -9.648438 3.03125 -5.691406 2.769531 -4.132812 C 2.164062 -0.773438 3.292969 1.703125 5.84375 2.589844 Z M 5.84375 2.589844 "/></g></g></g><g fill="#13292a" fill-opacity="1"><g transform="translate(187.446156, 46.595621)"><g><path d="M 6.527344 3.609375 C 7.078125 3.957031 9.007812 5.140625 10.207031 4.800781 C 10.613281 4.644531 10.917969 4.375 11.121094 3.980469 C 11.585938 3.066406 11.296875 2.027344 10.417969 1.675781 C 9.347656 1.261719 7.175781 0.476562 6.832031 -0.523438 C 6.410156 -1.695312 6.527344 -2.957031 7.167969 -4.210938 C 8.347656 -6.507812 10.765625 -8.203125 12.761719 -8.171875 C 13.078125 -8.207031 13.402344 -8.140625 13.664062 -8.003906 C 13.875 -7.898438 14.003906 -7.699219 14.171875 -7.449219 C 14.367188 -7.183594 14.585938 -6.839844 15.03125 -6.613281 C 15.5 -6.371094 16.027344 -6.433594 16.527344 -6.769531 C 16.84375 -7.003906 17.109375 -7.261719 17.257812 -7.550781 C 17.804688 -8.621094 16.808594 -10.023438 14.902344 -11 C 14.433594 -11.238281 13.960938 -11.414062 13.632812 -11.484375 C 10.121094 -12.03125 6.277344 -9.679688 4.296875 -5.8125 C 3.734375 -4.714844 3.382812 -3.578125 3.265625 -2.515625 C 2.929688 -0.0507812 4.152344 2.257812 6.527344 3.609375 Z M 6.527344 3.609375 "/></g></g></g><g fill="#13292a" fill-opacity="1"><g transform="translate(200.628472, 53.468497)"><g><path d="M 9.71875 7.199219 C 10.25 7.570312 10.90625 7.605469 11.484375 7.292969 C 12.144531 6.96875 12.207031 6.726562 13.15625 5.277344 L 14.777344 2.972656 C 16.261719 0.710938 18.050781 -1.726562 17.195312 -4.695312 C 16.84375 -5.984375 16.035156 -7.128906 14.882812 -7.9375 C 14.066406 -8.511719 13.140625 -8.878906 12.171875 -8.984375 C 13.34375 -10.746094 14.488281 -12.523438 15.613281 -14.28125 C 16.273438 -15.320312 16.34375 -16.132812 15.789062 -16.773438 C 15.191406 -17.554688 13.707031 -17.488281 13.125 -16.605469 L 4.957031 -4.085938 L 3.542969 -1.921875 C 3.027344 -1.136719 1.945312 0.0429688 2.550781 1.222656 C 2.738281 1.566406 2.949219 1.824219 3.167969 1.976562 C 3.957031 2.535156 4.957031 1.980469 6.039062 0.445312 C 6.410156 -0.0820312 6.828125 -0.828125 7.289062 -1.582031 C 7.773438 -2.425781 8.277344 -3.292969 8.765625 -3.988281 C 9.304688 -4.757812 9.867188 -5.402344 10.660156 -5.5625 C 11.496094 -5.726562 12.488281 -5.605469 12.9375 -5.324219 L 13.75 -4.390625 C 13.878906 -4.265625 13.945312 -4.003906 14.042969 -3.429688 C 14.074219 -3.269531 14.078125 -3.121094 14.121094 -2.980469 C 14.140625 -2.648438 13.929688 -2.042969 13.367188 -1.039062 L 13.382812 -1.0625 L 12.101562 0.910156 C 11.375 2.046875 11.0625 2.4375 10.699219 2.902344 C 10.421875 3.242188 10.113281 3.636719 9.589844 4.378906 C 8.777344 5.53125 8.808594 6.558594 9.71875 7.199219 Z M 9.71875 7.199219 "/></g></g></g><g fill="#13292a" fill-opacity="1"><g transform="translate(214.268003, 63.539503)"><g><path d="M 6.050781 -2.125 C 7.257812 -1.050781 8.28125 -2.027344 8.945312 -2.773438 L 15.652344 -10.320312 C 16.296875 -11.042969 17.894531 -12.488281 16.511719 -13.714844 C 15.285156 -14.808594 14.257812 -13.832031 13.578125 -13.066406 L 6.90625 -5.5625 C 6.246094 -4.816406 4.667969 -3.351562 6.050781 -2.125 Z M 1.976562 2.148438 C 2.679688 2.773438 3.613281 2.738281 4.199219 2.082031 C 4.878906 1.3125 4.820312 0.320312 4.054688 -0.363281 C 3.351562 -0.988281 2.417969 -0.953125 1.8125 -0.273438 C 1.152344 0.472656 1.230469 1.488281 1.976562 2.148438 Z M 1.976562 2.148438 "/></g></g></g><g fill="#13292a" fill-opacity="1"><g transform="translate(47.894716, 220.306865)"><g><path d="M 2.25 2.382812 C 2.425781 2.542969 2.597656 2.628906 2.734375 2.714844 C 2.867188 2.800781 2.964844 2.851562 3.082031 2.957031 C 3.199219 3.0625 3.316406 3.167969 3.4375 3.3125 C 3.554688 3.417969 3.671875 3.5625 3.808594 3.683594 C 4.808594 4.585938 5.964844 5.269531 7.160156 5.675781 C 11.152344 7.148438 15.589844 5.613281 17.6875 2.109375 C 19.820312 -1.394531 19.238281 -6.144531 16.320312 -8.773438 C 15.191406 -9.722656 12.085938 -11.316406 10.867188 -10.355469 C 10.597656 -10.136719 10.332031 -9.882812 10.101562 -9.628906 C 9.679688 -9.15625 9.277344 -8.597656 8.894531 -8.089844 C 8.632812 -7.722656 8.386719 -7.410156 8.125 -7.082031 C 7.421875 -6.261719 5.3125 -3.6875 3.800781 -1.894531 C 3.152344 -1.09375 2.609375 -0.453125 2.363281 -0.140625 C 1.535156 0.816406 1.488281 1.695312 2.25 2.382812 Z M 6.226562 1.359375 L 5.835938 0.96875 C 6.851562 -0.277344 7.890625 -1.507812 8.90625 -2.753906 C 10.050781 -4.136719 11.191406 -5.484375 12.316406 -6.847656 C 12.597656 -7.199219 13.222656 -6.988281 14.046875 -6.25 C 15.121094 -5.277344 15.636719 -3.996094 15.585938 -2.445312 C 15.5625 -1.082031 15.101562 0.0976562 14.253906 1.035156 C 12.207031 3.308594 8.554688 3.457031 6.226562 1.359375 Z M 6.226562 1.359375 "/></g></g></g><g fill="#13292a" fill-opacity="1"><g transform="translate(63.170977, 233.466855)"><g><path d="M 4.472656 3.316406 C 5.195312 3.800781 5.976562 4.101562 6.792969 4.207031 C 9.417969 4.601562 12.359375 3.144531 14.046875 0.628906 C 14.355469 0.167969 14.625 -0.378906 14.855469 -0.957031 C 14.921875 -1.101562 15.277344 -2.578125 15.234375 -3.082031 C 15.191406 -3.777344 14.9375 -4.484375 14.421875 -5.277344 C 13.859375 -6.097656 13.1875 -6.800781 12.445312 -7.296875 C 11.699219 -7.796875 10.917969 -8.097656 10.078125 -8.21875 C 7.632812 -8.589844 4.753906 -7.09375 3.082031 -4.597656 C 2.746094 -4.09375 2.472656 -3.546875 2.273438 -3.011719 C 1.476562 -0.691406 2.390625 1.921875 4.472656 3.316406 Z M 6.546875 0.835938 C 5.101562 0.0585938 4.851562 -1.414062 5.847656 -2.902344 C 6.007812 -3.140625 6.222656 -3.410156 6.542969 -3.703125 C 8.054688 -5.101562 9.515625 -5.390625 10.71875 -4.585938 L 10.851562 -4.496094 C 10.878906 -4.445312 10.925781 -4.414062 10.988281 -4.371094 C 11.851562 -3.574219 12.132812 -3.097656 11.964844 -2.890625 C 11.722656 -2.578125 11.613281 -2.082031 11.722656 -1.628906 C 11.757812 -1.636719 11.542969 -1.269531 11.015625 -0.671875 C 9.601562 0.820312 7.875 1.410156 6.546875 0.835938 Z M 6.546875 0.835938 "/></g></g></g><g fill="#13292a" fill-opacity="1"><g transform="translate(77.831691, 242.935689)"><g><path d="M 3.183594 2.191406 C 4.132812 2.652344 4.882812 2.3125 5.410156 1.222656 C 5.621094 0.796875 5.871094 0.0390625 6.269531 -1.144531 L 7.570312 -4.847656 C 7.730469 -5.355469 10.179688 -5.632812 11.84375 -5.261719 C 11.996094 -5.273438 12.4375 -4.914062 12.976562 -4.273438 C 13.125 -3.730469 12.964844 -2.988281 12.539062 -2.109375 C 12.378906 -1.777344 12.195312 -1.457031 12.007812 -1.136719 C 11.859375 -0.828125 11.6875 -0.535156 11.546875 -0.25 C 11.238281 0.390625 11.019531 0.839844 10.777344 1.28125 C 10.566406 1.707031 10.324219 2.144531 10.003906 2.808594 C 9.820312 3.1875 9.726562 3.496094 9.742188 3.765625 C 9.773438 4.367188 10.097656 4.90625 10.644531 5.171875 C 11.332031 5.503906 12.105469 5.355469 12.558594 4.785156 C 13.011719 4.214844 13.105469 4.023438 14.335938 1.429688 C 14.636719 0.8125 14.96875 0.0664062 15.40625 -0.835938 C 15.707031 -1.449219 15.992188 -2.101562 16.164062 -2.8125 C 16.648438 -4.832031 15.492188 -6.976562 13.382812 -8 C 11.957031 -8.691406 10.355469 -8.710938 8.8125 -8.492188 C 9.085938 -9.355469 9.355469 -10.511719 8.3125 -11.019531 C 7.34375 -11.492188 6.507812 -11.164062 6.015625 -10.144531 C 5.816406 -9.742188 5.695312 -9.246094 5.570312 -8.867188 C 5.511719 -8.632812 5.457031 -8.453125 5.410156 -8.300781 L 4.542969 -5.734375 C 4.042969 -4.21875 3.585938 -2.796875 2.921875 -1.070312 C 2.636719 -0.300781 1.714844 1.476562 3.183594 2.191406 Z M 3.183594 2.191406 "/></g></g></g><g fill="#13292a" fill-opacity="1"><g transform="translate(94.886429, 250.668006)"><g><path d="M 7.761719 -12.652344 C 8.53125 -12.378906 9.414062 -12.820312 9.707031 -13.640625 C 9.734375 -13.714844 9.769531 -13.816406 9.789062 -13.949219 C 9.808594 -14.164062 9.863281 -14.398438 9.910156 -14.6875 C 10.121094 -15.675781 10.414062 -17.054688 9.636719 -17.777344 C 9.488281 -17.914062 9.332031 -18.023438 9.132812 -18.09375 C 8.363281 -18.367188 7.480469 -17.925781 7.1875 -17.105469 C 7.164062 -17.03125 7.128906 -16.933594 7.109375 -16.800781 C 7.085938 -16.585938 7.03125 -16.351562 6.984375 -16.0625 C 6.773438 -15.074219 6.480469 -13.695312 7.257812 -12.972656 C 7.40625 -12.835938 7.5625 -12.722656 7.761719 -12.652344 Z M 7.761719 -12.652344 "/></g></g></g><g fill="#13292a" fill-opacity="1"><g transform="translate(104.751524, 254.033887)"><g><path d="M 6.117188 1.613281 C 6.8125 1.433594 7.195312 0.988281 7.402344 0.167969 C 7.484375 -0.164062 7.59375 -0.816406 7.703125 -1.574219 C 7.84375 -2.574219 8.03125 -3.75 8.222656 -4.515625 C 8.804688 -6.839844 8.882812 -7.367188 8.917969 -7.628906 C 8.917969 -7.738281 8.933594 -7.789062 8.953125 -7.863281 C 8.957031 -7.890625 8.90625 -7.902344 9.144531 -7.871094 L 9.449219 -7.792969 C 9.867188 -7.714844 10.378906 -7.589844 10.832031 -7.664062 C 11.394531 -7.742188 11.855469 -8.167969 11.996094 -8.730469 C 12.230469 -9.679688 11.65625 -10.636719 10.75 -10.808594 L 9.828125 -10.933594 C 10.027344 -11.398438 10.25 -11.859375 10.476562 -12.320312 C 10.691406 -12.753906 10.910156 -13.1875 11.109375 -13.652344 C 11.449219 -14.574219 10.855469 -15.675781 9.90625 -15.910156 C 8.273438 -16.320312 7.402344 -13.277344 7.054688 -12.332031 L 6.953125 -11.921875 C 6.855469 -11.539062 6.824219 -11.414062 6.589844 -11.445312 L 4.761719 -11.738281 C 3.941406 -11.835938 3.246094 -11.332031 3.039062 -10.511719 C 2.804688 -9.566406 3.339844 -8.890625 4.59375 -8.574219 C 4.976562 -8.480469 5.371094 -8.433594 5.6875 -8.382812 C 5.761719 -8.363281 5.847656 -8.371094 5.921875 -8.351562 C 5.578125 -6.863281 4.921875 -3.820312 4.707031 -2.515625 L 4.53125 -1.824219 C 4.300781 -1.015625 3.976562 0.179688 4.320312 0.863281 C 4.632812 1.460938 5.394531 1.785156 6.117188 1.613281 Z M 6.117188 1.613281 "/></g></g></g><g fill="#13292a" fill-opacity="1"><g transform="translate(119.092972, 257.29541)"><g/></g></g><g fill="#13292a" fill-opacity="1"><g transform="translate(130.458137, 258.873509)"><g><path d="M 6.363281 0.480469 C 7.550781 0.523438 8.746094 0.246094 9.792969 -0.324219 C 9.976562 -0.238281 10.132812 -0.207031 10.289062 -0.203125 C 11 -0.175781 11.652344 -0.65625 11.832031 -1.335938 C 11.980469 -1.855469 12.027344 -2.4375 12.082031 -3.988281 C 12.113281 -4.886719 12.195312 -5.804688 12.28125 -6.726562 C 12.296875 -7.199219 12.339844 -7.671875 12.382812 -8.144531 C 12.832031 -13.5625 13.066406 -15.769531 13.179688 -16.847656 C 13.226562 -17.347656 13.261719 -17.609375 13.265625 -17.820312 C 13.324219 -19.480469 12.851562 -20.339844 11.824219 -20.375 C 10.351562 -20.425781 10.140625 -18.929688 10.101562 -17.820312 L 10.070312 -16.847656 C 9.90625 -15.113281 9.765625 -13.402344 9.65625 -11.695312 C 6.621094 -12.351562 2.234375 -10.578125 0.863281 -6.773438 C 0.6875 -6.253906 0.589844 -5.726562 0.574219 -5.226562 C 0.472656 -2.25 3.152344 0.371094 6.363281 0.480469 Z M 6.390625 -2.578125 C 4.835938 -2.628906 3.554688 -3.753906 3.601562 -5.019531 C 3.617188 -5.546875 3.847656 -6.066406 4.402344 -6.917969 C 5.074219 -8 6.921875 -8.859375 8.449219 -8.808594 C 8.820312 -8.796875 9.078125 -8.707031 9.417969 -8.617188 C 9.382812 -8.355469 9.371094 -7.984375 9.328125 -7.539062 C 9.203125 -6.222656 9.058594 -4.304688 9.035156 -3.621094 C 9.023438 -3.277344 8.730469 -3.15625 7.980469 -2.8125 C 7.472656 -2.644531 6.917969 -2.558594 6.390625 -2.578125 Z M 6.390625 -2.578125 "/></g></g></g><g fill="#13292a" fill-opacity="1"><g transform="translate(148.336522, 259.019862)"><g><path d="M 2.175781 -14.53125 C 3.019531 -14.589844 3.671875 -15.40625 3.609375 -16.296875 C 3.570312 -16.824219 3.246094 -17.277344 2.753906 -17.53125 C 2.507812 -17.621094 2.238281 -17.679688 1.976562 -17.660156 C 1.136719 -17.597656 0.480469 -16.785156 0.546875 -15.890625 C 0.582031 -15.367188 0.90625 -14.914062 1.402344 -14.660156 C 1.644531 -14.570312 1.914062 -14.511719 2.175781 -14.53125 Z M 2.621094 0.0742188 C 3.515625 0.0117188 4.203125 -0.726562 4.164062 -1.59375 C 4.085938 -3.070312 3.964844 -4.75 3.84375 -6.40625 C 3.792969 -7.511719 3.710938 -8.617188 3.640625 -9.589844 C 3.628906 -9.746094 3.644531 -9.933594 3.628906 -10.144531 C 3.636719 -10.40625 3.640625 -10.726562 3.617188 -11.015625 C 3.566406 -11.722656 3.371094 -12.238281 3.035156 -12.53125 C 2.722656 -12.800781 2.34375 -12.929688 1.925781 -12.898438 C 1.03125 -12.835938 0.34375 -12.097656 0.378906 -11.230469 C 0.503906 -8.78125 0.726562 -5.679688 0.902344 -3.234375 C 0.914062 -3.078125 0.902344 -2.890625 0.917969 -2.683594 C 0.910156 -2.417969 0.90625 -2.101562 0.925781 -1.8125 C 0.976562 -1.101562 1.171875 -0.585938 1.511719 -0.292969 C 1.820312 -0.0273438 2.199219 0.105469 2.621094 0.0742188 Z M 2.621094 0.0742188 "/></g></g></g><g fill="#13292a" fill-opacity="1"><g transform="translate(158.277759, 258.217523)"><g><path d="M 3.796875 -0.46875 C 6.050781 -0.429688 10.558594 -2.976562 9.988281 -6.273438 C 9.746094 -7.675781 8.691406 -8.667969 7.078125 -9.03125 C 6.6875 -9.125 6.332031 -9.171875 5.976562 -9.214844 C 5.183594 -9.320312 4.578125 -9.402344 4.03125 -9.949219 C 4 -9.972656 4.121094 -10.660156 4.265625 -11.0625 C 4.308594 -11.28125 4.613281 -11.523438 5.460938 -11.882812 L 5.8125 -12.023438 C 5.933594 -12.097656 6.140625 -12.132812 6.398438 -12.179688 C 7.148438 -12.335938 8.28125 -12.585938 8.066406 -13.832031 C 7.882812 -14.894531 7.082031 -15.34375 5.785156 -15.121094 C 5.367188 -15.050781 4.882812 -14.910156 4.433594 -14.726562 C 2.199219 -13.886719 0.675781 -11.5625 1.019531 -9.5625 C 1.136719 -8.886719 1.460938 -8.25 1.980469 -7.722656 C 2.941406 -6.660156 4.371094 -6.425781 5.664062 -6.222656 C 6.179688 -6.175781 6.90625 -6.140625 7 -5.757812 C 6.703125 -5.011719 5.421875 -3.613281 4.40625 -3.4375 C 3.992188 -3.363281 3.683594 -3.605469 3.257812 -3.90625 C 2.859375 -4.183594 2.371094 -4.527344 1.800781 -4.429688 C 1.464844 -4.371094 1.179688 -4.160156 0.921875 -3.796875 C 0.636719 -3.425781 0.546875 -3.035156 0.609375 -2.671875 C 0.824219 -1.425781 2.820312 -0.542969 3.796875 -0.46875 Z M 3.796875 -0.46875 "/></g></g></g><g fill="#13292a" fill-opacity="1"><g transform="translate(174.199196, 255.128044)"><g><path d="M 6.085938 -1.730469 C 6.59375 -2.238281 6.695312 -2.816406 6.453125 -3.625 C 6.355469 -3.953125 6.117188 -4.570312 5.824219 -5.28125 C 5.4375 -6.210938 5 -7.316406 4.773438 -8.074219 C 4.089844 -10.375 3.886719 -10.863281 3.789062 -11.109375 C 3.730469 -11.203125 3.71875 -11.253906 3.695312 -11.328125 C 3.6875 -11.355469 3.636719 -11.339844 3.855469 -11.429688 L 4.160156 -11.523438 C 4.554688 -11.667969 5.0625 -11.816406 5.414062 -12.113281 C 5.859375 -12.46875 6.035156 -13.070312 5.871094 -13.625 C 5.59375 -14.558594 4.609375 -15.09375 3.738281 -14.777344 L 2.886719 -14.414062 C 2.820312 -14.917969 2.777344 -15.425781 2.734375 -15.9375 C 2.699219 -16.421875 2.667969 -16.90625 2.597656 -17.410156 C 2.421875 -18.375 1.351562 -19.015625 0.417969 -18.738281 C -1.199219 -18.257812 -0.398438 -15.195312 -0.214844 -14.207031 L -0.09375 -13.800781 C 0.0195312 -13.421875 0.0546875 -13.296875 -0.164062 -13.203125 L -1.886719 -12.527344 C -2.640625 -12.191406 -2.980469 -11.402344 -2.742188 -10.59375 C -2.464844 -9.660156 -1.65625 -9.351562 -0.417969 -9.71875 C -0.0390625 -9.832031 0.324219 -9.996094 0.621094 -10.109375 C 0.695312 -10.132812 0.765625 -10.179688 0.839844 -10.203125 C 1.300781 -8.746094 2.289062 -5.796875 2.765625 -4.5625 L 2.96875 -3.882812 C 3.183594 -3.066406 3.511719 -1.871094 4.15625 -1.457031 C 4.730469 -1.105469 5.550781 -1.210938 6.085938 -1.730469 Z M 6.085938 -1.730469 "/></g></g></g><g fill="#13292a" fill-opacity="1"><g transform="translate(188.379827, 250.67793)"><g><path d="M 5.429688 -1.863281 C 9.3125 -3.566406 9.828125 -8.824219 8.261719 -12.398438 C 7.828125 -13.386719 7.3125 -14.167969 6.671875 -14.78125 C 6.144531 -15.324219 5.375 -15.503906 4.699219 -15.210938 C 4.191406 -14.988281 3.851562 -14.578125 3.730469 -14.007812 C 3.628906 -13.648438 3.660156 -13.316406 3.796875 -13 C 3.976562 -12.589844 4.179688 -12.390625 4.347656 -12.207031 C 4.59375 -11.96875 4.839844 -11.734375 5.203125 -10.914062 C 5.699219 -9.777344 5.824219 -8.507812 5.574219 -7.304688 C 5.273438 -6.023438 4.753906 -5.363281 3.683594 -4.921875 C 2.453125 -5.105469 1.734375 -7.003906 1.179688 -8.140625 C 0.867188 -8.78125 0.59375 -9.410156 0.296875 -10.085938 C 0.234375 -10.230469 0.195312 -10.386719 0.144531 -10.566406 C 0.0507812 -10.84375 -0.0625 -11.167969 -0.1875 -11.457031 C -0.28125 -11.671875 -0.382812 -11.832031 -0.488281 -12.015625 C -0.976562 -12.664062 -1.824219 -12.894531 -2.597656 -12.558594 C -3.082031 -12.347656 -3.445312 -11.925781 -3.550781 -11.449219 C -3.675781 -10.878906 -3.574219 -10.257812 -3.207031 -9.414062 C -3.027344 -9.003906 -1.476562 -5.597656 -0.699219 -4.414062 C 0.953125 -1.828125 3.207031 -0.886719 5.429688 -1.863281 Z M 5.429688 -1.863281 "/></g></g></g><g fill="#13292a" fill-opacity="1"><g transform="translate(204.38592, 243.220443)"><g><path d="M 3.421875 -3.375 C 3.0625 -3.988281 2.675781 -4.585938 2.277344 -5.207031 C 2.011719 -5.601562 1.734375 -6.019531 1.492188 -6.425781 C 1.398438 -6.585938 1.234375 -6.761719 1.078125 -6.976562 C 0.789062 -7.359375 0.453125 -7.769531 0.222656 -8.15625 C 0.0234375 -8.496094 -0.0507812 -8.726562 -0.015625 -8.871094 C 0.148438 -9.886719 0.515625 -10.71875 1.046875 -11.371094 L 1.421875 -11.773438 C 1.902344 -12.304688 2.617188 -13.066406 2.132812 -13.882812 C 1.652344 -14.695312 0.726562 -14.914062 -0.113281 -14.417969 C -0.929688 -13.933594 -1.679688 -12.820312 -2.105469 -12.042969 C -2.625 -12.871094 -3.175781 -13.585938 -4.535156 -12.78125 C -5.261719 -12.351562 -5.546875 -11.386719 -5.105469 -10.695312 L -3.738281 -8.539062 L -1.585938 -5.214844 C -0.894531 -4.09375 -0.175781 -2.988281 0.539062 -1.882812 C 1.617188 -0.164062 4.429688 -1.671875 3.421875 -3.375 Z M 3.421875 -3.375 "/></g></g></g><g fill="#13292a" fill-opacity="1"><g transform="translate(216.588177, 235.80718)"><g><path d="M 4.269531 -15.84375 C 0.773438 -17.632812 -2.890625 -15.816406 -5 -13.808594 C -5.371094 -14.453125 -5.714844 -15.15625 -6.039062 -15.871094 L -6.292969 -16.539062 C -6.492188 -17.054688 -6.699219 -17.660156 -7.054688 -18.121094 C -7.214844 -18.328125 -7.367188 -18.476562 -7.578125 -18.578125 C -8.105469 -18.871094 -8.804688 -18.828125 -9.304688 -18.4375 C -10.59375 -17.433594 -9.535156 -15.855469 -9.183594 -15.0625 C -8.039062 -12.476562 -6.59375 -10.0625 -4.847656 -7.816406 C -4.003906 -6.734375 -3.03125 -5.65625 -1.929688 -4.542969 C -1.113281 -3.707031 1.128906 -0.777344 2.773438 -2.058594 C 3.023438 -2.25 3.285156 -2.386719 3.601562 -2.535156 C 3.664062 -2.585938 3.742188 -2.613281 3.785156 -2.644531 C 4.046875 -2.78125 4.328125 -2.933594 4.597656 -3.144531 C 5.515625 -3.855469 6.0625 -4.953125 6.542969 -5.925781 C 7.289062 -7.410156 7.933594 -9.113281 7.808594 -10.820312 C 7.695312 -11.996094 7.28125 -13.042969 6.585938 -13.9375 C 5.984375 -14.707031 5.167969 -15.375 4.269531 -15.84375 Z M 4.167969 -11.894531 C 5.183594 -10.546875 4.667969 -8.375 2.621094 -5.644531 L 2.558594 -5.597656 C 2.511719 -5.527344 2.46875 -5.496094 2.449219 -5.476562 C 2.40625 -5.445312 2.347656 -5.433594 2.214844 -5.394531 L 1.976562 -5.3125 C 1.835938 -5.234375 1.308594 -5.660156 0.480469 -6.550781 C 0.367188 -6.695312 0.269531 -6.820312 0.152344 -6.929688 C -0.71875 -7.789062 -1.503906 -8.714844 -2.285156 -9.675781 C -2.625 -10.113281 -2.945312 -10.566406 -3.265625 -11.015625 L -2.78125 -11.558594 C -2.613281 -11.726562 -2.421875 -11.90625 -2.234375 -12.054688 C 0.117188 -13.882812 2.773438 -13.8125 4.167969 -11.894531 Z M 4.167969 -11.894531 "/></g></g></g><g fill="#13292a" fill-opacity="1"><g transform="translate(231.212456, 223.778933)"><g><path d="M -1.511719 -5.554688 C -0.472656 -6.566406 -1.28125 -7.546875 -1.90625 -8.1875 L -8.234375 -14.679688 C -8.839844 -15.304688 -10.03125 -16.828125 -11.222656 -15.667969 C -12.277344 -14.640625 -11.472656 -13.660156 -10.828125 -13 L -4.539062 -6.542969 C -3.910156 -5.902344 -2.703125 -4.394531 -1.511719 -5.554688 Z M 2.050781 -1.632812 C 2.65625 -2.21875 2.6875 -3.058594 2.132812 -3.625 C 1.492188 -4.285156 0.597656 -4.296875 -0.0664062 -3.652344 C -0.667969 -3.066406 -0.699219 -2.226562 -0.128906 -1.640625 C 0.496094 -1 1.410156 -1.007812 2.050781 -1.632812 Z M 2.050781 -1.632812 "/></g></g></g><g clip-path="url(#bc00c4fc68)"><path fill="#fff7ed" d="M 229.847656 90.011719 C 228.257812 84.421875 223.589844 77.394531 215.640625 76.058594 C 214.871094 75.929688 214.097656 75.863281 213.316406 75.863281 C 207.007812 75.863281 201.488281 80.144531 199.582031 86.496094 C 198.152344 91.246094 199.488281 95.886719 200.464844 99.273438 C 200.683594 100.027344 200.90625 100.800781 201.078125 101.5 C 201.679688 103.863281 202.011719 106.261719 202.070312 108.699219 C 202.109375 111.109375 201.878906 112.691406 201.304688 113.996094 C 199.871094 117.25 196.398438 120.214844 191.726562 122.21875 C 187.738281 119.675781 183.011719 117.800781 177.664062 116.636719 C 172.988281 115.617188 168.257812 115.105469 163.46875 115.101562 C 157.261719 115.089844 151.179688 115.953125 145.222656 117.683594 C 136.683594 120.234375 128.882812 124.21875 121.8125 129.632812 C 120.246094 130.816406 118.808594 131.976562 117.453125 133.148438 C 117.292969 132.996094 117.128906 132.851562 116.960938 132.710938 C 116.234375 132.097656 115.421875 131.632812 114.527344 131.3125 C 113.628906 130.992188 112.707031 130.839844 111.753906 130.851562 C 111.105469 130.859375 110.460938 130.917969 109.820312 131.03125 C 108.179688 131.335938 106.585938 131.796875 105.035156 132.414062 C 103.757812 132.894531 102.457031 133.429688 101.15625 134.007812 C 99.4375 133.46875 97.738281 133.105469 96.222656 132.777344 L 95.832031 132.691406 C 95.117188 132.542969 94.421875 132.402344 93.726562 132.261719 C 93.285156 131.574219 92.804688 130.894531 92.292969 130.246094 C 89.527344 126.710938 86.25 124.847656 82.816406 124.847656 C 82.195312 124.84375 81.582031 124.90625 80.972656 125.03125 C 76.789062 125.882812 74.402344 129.503906 73.382812 131.050781 C 72.011719 133.195312 70.835938 135.441406 69.855469 137.789062 C 69.535156 138.527344 69.242188 139.21875 68.976562 139.890625 C 67.1875 141.269531 65.582031 142.835938 64.164062 144.589844 C 63.796875 145.03125 63.441406 145.488281 63.089844 145.957031 C 62.4375 145.734375 61.769531 145.625 61.078125 145.628906 C 60.4375 145.628906 59.8125 145.726562 59.199219 145.917969 C 58.585938 146.113281 58.015625 146.390625 57.488281 146.753906 C 56.960938 147.117188 56.5 147.550781 56.101562 148.050781 C 55.707031 148.554688 55.390625 149.105469 55.160156 149.703125 C 54.925781 150.3125 54.789062 150.945312 54.753906 151.597656 C 53.671875 152.480469 52.953125 153.597656 52.605469 154.949219 C 52.382812 155.839844 52.355469 156.734375 52.523438 157.636719 C 52.695312 158.539062 53.050781 159.363281 53.585938 160.109375 C 53.125 160.929688 52.855469 161.804688 52.78125 162.742188 C 52.75 163.128906 52.757812 163.515625 52.800781 163.898438 C 52.839844 164.285156 52.917969 164.664062 53.03125 165.035156 C 53.144531 165.40625 53.292969 165.761719 53.476562 166.105469 C 53.65625 166.449219 53.871094 166.769531 54.113281 167.074219 C 54.355469 167.375 54.625 167.652344 54.917969 167.90625 C 55.214844 168.15625 55.53125 168.378906 55.867188 168.570312 C 56.207031 168.765625 56.558594 168.921875 56.925781 169.050781 C 57.292969 169.175781 57.671875 169.265625 58.054688 169.320312 L 58.339844 169.363281 C 58.59375 170.4375 58.910156 171.496094 59.296875 172.53125 C 55.175781 173.992188 52.808594 176.574219 52.261719 180.222656 C 51.414062 185.8125 55.265625 190.960938 59.5 193.15625 C 62.515625 194.722656 65.738281 194.921875 68.207031 194.921875 C 68.5625 194.921875 68.941406 194.921875 69.304688 194.921875 C 71.007812 199.289062 75.355469 202.378906 81.214844 203.296875 C 83.699219 203.660156 86.195312 203.824219 88.707031 203.792969 L 90.003906 203.792969 C 93.722656 203.75 97.625 203.5 101.933594 203.03125 C 112.144531 201.945312 122.140625 199.847656 131.925781 196.738281 C 132.996094 196.378906 134.070312 196.023438 135.125 195.667969 C 135.144531 195.914062 135.175781 196.160156 135.222656 196.40625 C 135.828125 199.691406 138.414062 202.378906 141.972656 203.429688 C 143.074219 203.746094 144.195312 203.90625 145.339844 203.902344 C 147.460938 203.875 149.488281 203.425781 151.421875 202.5625 C 151.519531 202.683594 151.617188 202.800781 151.722656 202.917969 C 153.820312 205.34375 156.851562 206.632812 160.984375 206.84375 C 161.273438 206.84375 161.558594 206.863281 161.84375 206.863281 C 166.769531 206.863281 171.617188 204.636719 176.671875 200.058594 C 178.609375 198.316406 180.324219 196.375 181.820312 194.238281 C 182.539062 193.21875 183.15625 192.144531 183.675781 191.007812 C 183.816406 190.691406 183.945312 190.378906 184.058594 190.074219 C 184.140625 189.988281 184.21875 189.90625 184.304688 189.824219 C 184.753906 189.390625 185.277344 188.945312 185.863281 188.449219 L 186.332031 188.050781 C 188.839844 185.953125 191.121094 183.632812 193.175781 181.089844 C 196.34375 177.050781 198.921875 172.664062 200.90625 167.933594 C 203.246094 162.542969 204.632812 157.976562 205.265625 153.625 C 206.042969 148.324219 205.753906 143.324219 204.414062 138.734375 C 207.199219 137.410156 209.835938 135.835938 212.324219 134.007812 C 216.015625 131.332031 218.761719 128.875 220.984375 126.285156 C 223.191406 123.6875 225.054688 120.859375 226.570312 117.808594 C 228.089844 114.753906 229.214844 111.5625 229.953125 108.238281 C 230.980469 103.703125 231.785156 96.863281 229.847656 90.011719 Z M 224.347656 106.984375 C 223.710938 109.855469 222.738281 112.605469 221.429688 115.242188 C 220.121094 117.875 218.515625 120.3125 216.609375 122.554688 C 214.378906 125.160156 211.707031 127.351562 208.9375 129.363281 C 206.703125 131.007812 204.335938 132.425781 201.824219 133.617188 C 200.226562 134.417969 198.558594 135.019531 196.816406 135.421875 C 199.796875 140.652344 200.4375 146.863281 199.570312 152.804688 C 198.917969 157.265625 197.398438 161.542969 195.613281 165.675781 C 193.828125 169.933594 191.511719 173.882812 188.671875 177.523438 C 186.832031 179.78125 184.800781 181.84375 182.566406 183.714844 C 181.800781 184.371094 181.019531 185.011719 180.296875 185.710938 C 180 185.996094 179.722656 186.292969 179.453125 186.605469 L 179.363281 186.71875 L 179.222656 186.921875 C 179.121094 187.070312 179.027344 187.230469 178.941406 187.390625 C 178.902344 187.464844 178.867188 187.539062 178.832031 187.617188 L 178.796875 187.71875 C 178.683594 188.042969 178.554688 188.359375 178.417969 188.671875 C 178.046875 189.480469 177.601562 190.25 177.085938 190.976562 C 175.839844 192.75 174.410156 194.363281 172.792969 195.8125 C 169.667969 198.644531 165.695312 201.347656 161.289062 201.109375 C 159.453125 201.011719 157.335938 200.613281 156.070312 199.15625 C 154.941406 197.84375 154.863281 196.082031 155.300781 194.476562 C 155.605469 193.550781 155.972656 192.652344 156.410156 191.78125 C 154.464844 193.894531 152.261719 195.796875 149.691406 197.019531 C 147.839844 197.902344 145.636719 198.5 143.609375 197.898438 C 142.390625 197.542969 141.132812 196.664062 140.886719 195.34375 C 140.75 194.601562 141.035156 194.070312 141.390625 193.453125 C 142.035156 192.261719 142.585938 191.03125 143.042969 189.757812 C 143.585938 188.367188 144.09375 186.964844 144.578125 185.550781 C 139.910156 187.789062 135.105469 189.691406 130.167969 191.257812 C 120.757812 194.246094 111.140625 196.257812 101.320312 197.292969 C 97.542969 197.703125 93.746094 197.972656 89.949219 198.007812 C 87.324219 198.085938 84.714844 197.945312 82.117188 197.585938 C 78.675781 197.082031 74.683594 195.175781 74.324219 191.3125 C 74.25 190.460938 74.367188 189.636719 74.683594 188.84375 C 73.199219 188.996094 71.714844 189.097656 70.222656 189.144531 C 67.601562 189.226562 64.566406 189.304688 62.175781 188.074219 C 59.789062 186.84375 57.507812 183.894531 57.949219 181.089844 C 58.390625 178.289062 61.859375 177.675781 64.167969 177.167969 C 65.535156 176.867188 66.921875 176.625 68.3125 176.425781 C 65.238281 173.101562 63.6875 168.835938 63.386719 164.328125 L 58.917969 163.648438 C 58.234375 163.546875 58.527344 162.511719 59.203125 162.613281 L 63.335938 163.257812 C 63.335938 163.09375 63.335938 162.929688 63.335938 162.765625 C 63.332031 161.734375 63.402344 160.710938 63.542969 159.6875 L 58.453125 156.925781 C 57.84375 156.59375 58.390625 155.667969 58.996094 155.996094 L 63.730469 158.570312 C 63.917969 157.601562 64.164062 156.652344 64.472656 155.714844 L 60.683594 152.304688 C 60.167969 151.839844 60.929688 151.085938 61.445312 151.546875 L 64.867188 154.628906 C 65.769531 152.300781 67.015625 150.171875 68.597656 148.242188 C 70.046875 146.421875 71.746094 144.875 73.699219 143.605469 C 74.128906 142.417969 74.617188 141.246094 75.128906 140.089844 C 75.976562 138.042969 76.996094 136.082031 78.1875 134.214844 C 79.101562 132.824219 80.371094 131.003906 82.125 130.644531 C 84.40625 130.183594 86.480469 132.144531 87.757812 133.773438 C 88.648438 134.902344 89.40625 136.117188 90.03125 137.414062 C 91.566406 137.671875 93.097656 137.972656 94.621094 138.300781 C 96.886719 138.785156 99.269531 139.265625 101.417969 140.21875 C 103.257812 139.320312 105.140625 138.496094 107.054688 137.785156 C 108.261719 137.296875 109.5 136.933594 110.777344 136.683594 C 111.699219 136.53125 112.523438 136.480469 113.28125 137.109375 C 114.710938 138.308594 115.3125 140.574219 115.8125 142.285156 C 115.851562 142.40625 115.882812 142.53125 115.914062 142.640625 C 120.128906 138.105469 124.859375 134.183594 130.101562 130.886719 C 135.347656 127.585938 140.933594 125.015625 146.855469 123.175781 C 151.671875 121.789062 156.589844 121.015625 161.605469 120.851562 C 166.617188 120.6875 171.574219 121.140625 176.472656 122.214844 C 181.652344 123.339844 186.773438 125.359375 190.929688 128.632812 C 197.121094 126.644531 203.835938 122.539062 206.59375 116.300781 C 207.667969 113.84375 207.894531 111.238281 207.851562 108.585938 C 207.78125 105.722656 207.398438 102.902344 206.695312 100.125 C 205.757812 96.296875 203.929688 92.097656 205.121094 88.125 C 206.375 83.9375 210.265625 80.953125 214.710938 81.707031 C 219.605469 82.53125 223.046875 87.054688 224.324219 91.566406 C 225.714844 96.53125 225.46875 102.003906 224.347656 106.984375 Z M 224.347656 106.984375 " fill-opacity="1" fill-rule="nonzero"/></g><path fill="#b6cae1" d="M 220.730469 87.9375 C 218.628906 84.78125 214.351562 82.035156 210.542969 83.953125 C 209.675781 84.425781 208.921875 85.039062 208.292969 85.800781 C 207.660156 86.558594 207.191406 87.410156 206.882812 88.347656 C 206.34375 89.96875 206.425781 91.65625 206.75 93.308594 C 207.167969 95.394531 207.824219 97.425781 208.339844 99.488281 C 209.023438 102.175781 209.429688 104.90625 209.558594 107.675781 C 209.675781 110.355469 209.578125 113.09375 208.707031 115.652344 C 207.980469 117.730469 206.90625 119.613281 205.488281 121.304688 C 203.027344 124.3125 199.71875 126.601562 196.257812 128.324219 C 195.019531 128.949219 193.746094 129.507812 192.445312 129.988281 C 193.59375 131.046875 194.625 132.207031 195.539062 133.46875 C 195.617188 133.570312 195.691406 133.679688 195.765625 133.785156 L 196.027344 133.742188 C 196.246094 133.703125 196.464844 133.652344 196.683594 133.601562 C 197.332031 133.445312 197.96875 133.257812 198.59375 133.035156 C 200.554688 132.328125 202.425781 131.433594 204.203125 130.351562 C 209.570312 127.171875 214.605469 123.019531 217.984375 117.722656 C 220.972656 113.027344 222.738281 107.914062 223.289062 102.382812 C 223.789062 97.574219 223.511719 92.085938 220.730469 87.9375 Z M 218.226562 101.734375 C 218.179688 101.871094 218.09375 101.972656 217.964844 102.042969 C 217.835938 102.113281 217.703125 102.128906 217.5625 102.089844 C 217.421875 102.050781 217.3125 101.96875 217.238281 101.839844 C 217.167969 101.710938 217.148438 101.574219 217.1875 101.429688 C 217.367188 100.9375 217.488281 100.429688 217.546875 99.90625 C 217.589844 99.378906 217.574219 98.859375 217.496094 98.339844 C 217.460938 98.195312 217.480469 98.0625 217.550781 97.933594 C 217.625 97.808594 217.730469 97.722656 217.871094 97.679688 C 218.011719 97.640625 218.144531 97.652344 218.273438 97.722656 C 218.402344 97.792969 218.488281 97.898438 218.535156 98.035156 C 218.757812 99.296875 218.65625 100.527344 218.230469 101.734375 Z M 220.523438 102.496094 L 219.742188 105.113281 C 219.695312 105.25 219.609375 105.351562 219.480469 105.421875 C 219.355469 105.488281 219.222656 105.507812 219.082031 105.46875 C 218.9375 105.429688 218.832031 105.34375 218.757812 105.214844 C 218.683594 105.085938 218.667969 104.953125 218.703125 104.808594 L 219.488281 102.203125 C 219.527344 102.058594 219.613281 101.949219 219.742188 101.878906 C 219.871094 101.804688 220.007812 101.789062 220.148438 101.828125 C 220.292969 101.867188 220.402344 101.949219 220.476562 102.078125 C 220.546875 102.207031 220.566406 102.34375 220.527344 102.488281 Z M 220.765625 96.472656 C 220.726562 96.617188 220.640625 96.726562 220.511719 96.796875 C 220.382812 96.871094 220.246094 96.886719 220.105469 96.847656 C 219.960938 96.808594 219.851562 96.726562 219.777344 96.597656 C 219.703125 96.46875 219.6875 96.332031 219.726562 96.1875 C 219.726562 96.128906 219.757812 96.070312 219.765625 96.007812 C 219.777344 95.949219 219.765625 95.957031 219.765625 95.929688 C 219.765625 95.90625 219.765625 95.890625 219.765625 95.878906 C 219.769531 95.84375 219.769531 95.8125 219.765625 95.777344 C 219.765625 95.71875 219.765625 95.667969 219.765625 95.613281 C 219.753906 95.507812 219.746094 95.402344 219.742188 95.296875 L 219.742188 95.230469 C 219.742188 95.179688 219.722656 95.128906 219.707031 95.074219 C 219.679688 94.960938 219.644531 94.851562 219.601562 94.742188 C 219.601562 94.742188 219.601562 94.71875 219.601562 94.703125 L 219.527344 94.558594 C 219.472656 94.457031 219.410156 94.363281 219.34375 94.265625 L 219.328125 94.238281 L 219.300781 94.210938 L 219.195312 94.089844 C 219.09375 93.984375 219.042969 93.859375 219.042969 93.710938 C 219.042969 93.566406 219.09375 93.4375 219.195312 93.335938 C 219.300781 93.230469 219.425781 93.175781 219.574219 93.175781 C 219.722656 93.175781 219.847656 93.230469 219.953125 93.335938 C 220.347656 93.753906 220.617188 94.242188 220.761719 94.800781 C 220.90625 95.355469 220.90625 95.914062 220.769531 96.472656 Z M 219.777344 95.285156 Z M 219.777344 95.285156 C 219.800781 95.378906 219.78125 95.3125 219.78125 95.289062 Z M 111.957031 138.363281 C 112 138.363281 112 138.363281 111.957031 138.363281 Z M 190.285156 130.390625 L 190.214844 130.332031 C 185.921875 126.765625 180.554688 124.796875 175.0625 123.734375 C 174.589844 127.109375 172.726562 139.429688 170.789062 140.085938 C 168.851562 140.742188 165.929688 127.003906 165.046875 122.675781 C 162.054688 122.601562 159.074219 122.746094 156.101562 123.117188 C 156.636719 126.980469 158.230469 140.410156 155.03125 142.328125 C 151.746094 144.289062 146.539062 129.289062 145.292969 125.53125 C 143.566406 126.09375 141.863281 126.742188 140.179688 127.476562 C 139.621094 127.714844 139.066406 127.96875 138.515625 128.234375 C 139.625 132.265625 144.082031 149.234375 140.78125 150.554688 C 137.476562 151.875 131.121094 137 129.578125 133.300781 C 127.085938 134.972656 124.703125 136.792969 122.441406 138.765625 C 120.277344 140.585938 118.269531 142.566406 116.417969 144.707031 C 116.832031 146.492188 117.15625 148.273438 117.429688 150.058594 C 117.785156 152.0625 117.992188 154.085938 118.050781 156.121094 C 118.050781 157.257812 116.285156 157.257812 116.28125 156.121094 C 116.28125 155.316406 116.207031 154.507812 116.128906 153.707031 C 115.871094 151.195312 115.480469 148.707031 114.953125 146.242188 C 114.472656 143.984375 113.964844 141.566406 112.875 139.503906 C 112.714844 139.183594 112.523438 138.886719 112.296875 138.609375 C 112.238281 138.546875 112.179688 138.484375 112.113281 138.421875 L 112.074219 138.394531 C 112.039062 138.363281 112 138.335938 111.957031 138.320312 L 111.863281 138.320312 C 111.753906 138.320312 111.644531 138.320312 111.535156 138.335938 C 111.324219 138.355469 111.113281 138.390625 110.90625 138.4375 C 110.292969 138.5625 109.6875 138.726562 109.09375 138.921875 C 106.777344 139.6875 104.53125 140.613281 102.347656 141.699219 C 102.1875 141.777344 102.03125 141.867188 101.863281 141.9375 C 101.253906 142.183594 100.757812 141.816406 100.191406 141.609375 C 98.949219 141.164062 97.6875 140.796875 96.402344 140.503906 C 94.132812 139.953125 91.84375 139.496094 89.542969 139.078125 C 89.042969 139.023438 88.695312 138.765625 88.507812 138.300781 C 88.085938 137.4375 87.609375 136.605469 87.074219 135.804688 C 86.40625 134.734375 85.570312 133.816406 84.570312 133.046875 C 84.09375 132.675781 83.5625 132.4375 82.96875 132.332031 C 82.691406 132.273438 82.421875 132.308594 82.167969 132.4375 C 80.410156 133.277344 79.226562 135.6875 78.339844 137.359375 C 77.328125 139.28125 76.4375 141.253906 75.664062 143.285156 C 75.527344 143.640625 75.410156 144.027344 75.253906 144.378906 C 75.082031 144.726562 74.820312 144.984375 74.46875 145.148438 C 73.433594 145.835938 72.480469 146.621094 71.605469 147.496094 C 69.167969 149.851562 67.371094 152.617188 66.21875 155.800781 L 69.492188 158.746094 C 70.007812 159.210938 69.246094 159.96875 68.734375 159.507812 L 65.875 156.921875 C 65.636719 157.730469 65.453125 158.550781 65.324219 159.386719 L 67.960938 160.8125 C 68.566406 161.144531 68.023438 162.070312 67.414062 161.738281 L 65.179688 160.527344 C 65.085938 161.503906 65.050781 162.480469 65.082031 163.460938 L 67.789062 163.871094 C 68.472656 163.972656 68.179688 165.003906 67.5 164.902344 L 65.148438 164.546875 C 65.503906 168.828125 67.132812 172.910156 70.34375 175.960938 L 70.59375 176.1875 C 70.753906 176.246094 70.871094 176.351562 70.949219 176.503906 C 74.117188 179.246094 78.136719 180.898438 82.175781 181.898438 C 83.054688 182.117188 83.941406 182.300781 84.832031 182.457031 C 85.578125 182.589844 86.191406 182.679688 86.761719 182.746094 C 87.335938 182.8125 87.941406 182.875 88.53125 182.902344 L 89.246094 182.660156 C 91.738281 181.789062 94.21875 180.882812 96.691406 179.949219 C 97.765625 179.546875 98.214844 181.253906 97.160156 181.652344 L 96.621094 181.855469 C 94.136719 182.785156 91.644531 183.691406 89.140625 184.5625 C 89.046875 184.617188 88.949219 184.648438 88.847656 184.664062 L 87.285156 185.195312 C 85.445312 185.820312 83.601562 186.429688 81.730469 186.949219 C 80.546875 187.3125 79.339844 187.546875 78.105469 187.660156 L 78 187.660156 L 77.820312 187.707031 C 77.59375 187.773438 77.820312 187.683594 77.605469 187.800781 C 77.421875 187.886719 77.261719 188.007812 77.125 188.15625 C 76.746094 188.539062 76.464844 188.980469 76.28125 189.480469 C 76.046875 190.117188 75.988281 190.765625 76.097656 191.433594 C 76.210938 192.097656 76.480469 192.695312 76.90625 193.21875 C 78.085938 194.695312 80.066406 195.417969 81.863281 195.785156 C 82.753906 195.972656 83.65625 196.089844 84.566406 196.140625 C 91.429688 196.660156 98.453125 196.007812 105.246094 195.070312 C 114.945312 193.773438 124.402344 191.492188 133.625 188.226562 C 143.035156 184.84375 152.210938 180.230469 159.804688 173.664062 C 159.839844 172.878906 159.890625 172.097656 160.003906 171.3125 C 160.589844 167.253906 162.34375 162.609375 166.214844 160.613281 C 167.226562 160.09375 168.121094 161.617188 167.109375 162.132812 C 165.347656 163.039062 164.144531 164.601562 163.289062 166.347656 C 162.433594 168.152344 161.898438 170.046875 161.675781 172.027344 C 161.601562 172.652344 161.566406 173.28125 161.539062 173.910156 C 161.597656 174.070312 161.597656 174.226562 161.539062 174.386719 C 161.515625 175.144531 161.496094 175.90625 161.425781 176.65625 C 161.109375 180.445312 160.484375 184.183594 159.546875 187.867188 C 159.539062 187.933594 159.523438 187.996094 159.496094 188.058594 C 159.382812 188.488281 159.269531 188.917969 159.140625 189.34375 C 158.882812 190.257812 158.574219 191.152344 158.21875 192.035156 C 157.863281 192.882812 157.414062 193.691406 157.148438 194.5625 C 156.730469 195.839844 156.585938 197.359375 157.738281 198.300781 C 159.070312 199.371094 161.347656 199.53125 162.976562 199.328125 C 164.894531 199.097656 166.699219 198.144531 168.296875 197.109375 C 171.609375 194.972656 174.828125 191.875 176.644531 188.332031 C 177.070312 187.507812 177.289062 186.617188 177.835938 185.855469 C 178.367188 185.160156 178.960938 184.527344 179.625 183.957031 C 181.359375 182.394531 183.179688 180.941406 184.808594 179.273438 C 187.355469 176.636719 189.515625 173.71875 191.296875 170.519531 C 193.734375 166.230469 195.613281 161.714844 196.929688 156.964844 C 197.898438 153.582031 198.324219 150.132812 198.207031 146.621094 C 197.894531 140.304688 195.179688 134.46875 190.285156 130.390625 Z M 70.292969 153.933594 C 70.292969 153.484375 70.375 153.054688 70.546875 152.640625 C 70.71875 152.230469 70.960938 151.863281 71.28125 151.546875 C 71.597656 151.234375 71.960938 150.988281 72.375 150.816406 C 72.789062 150.648438 73.21875 150.5625 73.667969 150.5625 C 74.117188 150.5625 74.546875 150.644531 74.960938 150.816406 C 75.375 150.988281 75.742188 151.230469 76.058594 151.546875 C 76.375 151.863281 76.617188 152.226562 76.789062 152.640625 C 76.960938 153.054688 77.046875 153.484375 77.046875 153.929688 C 77.046875 154.375 76.960938 154.804688 76.789062 155.21875 C 76.617188 155.632812 76.371094 155.996094 76.054688 156.3125 C 75.738281 156.625 75.371094 156.871094 74.957031 157.039062 C 74.542969 157.210938 74.113281 157.296875 73.664062 157.296875 C 73.21875 157.296875 72.785156 157.210938 72.371094 157.039062 C 71.957031 156.867188 71.589844 156.621094 71.273438 156.304688 C 70.957031 155.988281 70.714844 155.621094 70.542969 155.210938 C 70.375 154.796875 70.289062 154.363281 70.292969 153.917969 Z M 84.601562 168.425781 C 83.503906 169.136719 82.1875 169.75 80.847656 169.605469 C 80.320312 169.542969 79.835938 169.378906 79.382812 169.105469 C 78.929688 168.835938 78.558594 168.480469 78.257812 168.046875 C 77.816406 167.425781 77.523438 166.738281 77.375 165.992188 C 76.722656 166.539062 75.972656 166.777344 75.125 166.707031 C 74.695312 166.675781 74.296875 166.546875 73.933594 166.320312 C 73.566406 166.089844 73.277344 165.789062 73.066406 165.417969 C 72.636719 164.648438 72.617188 163.726562 72.652344 162.871094 C 72.699219 161.738281 74.46875 161.738281 74.421875 162.871094 C 74.386719 163.636719 74.300781 165.011719 75.421875 164.949219 C 76.546875 164.890625 77.140625 163.714844 77.632812 162.890625 C 78.230469 161.886719 79.601562 162.765625 79.160156 163.777344 C 79.261719 163.546875 79.113281 163.964844 79.09375 164.046875 C 79.078125 164.09375 79.070312 164.140625 79.0625 164.1875 C 79.0625 164.222656 79.0625 164.289062 79.0625 164.308594 C 79.035156 164.640625 79.035156 164.972656 79.0625 165.304688 L 79.085938 165.441406 C 79.085938 165.523438 79.117188 165.605469 79.136719 165.691406 C 79.175781 165.859375 79.222656 166.027344 79.277344 166.1875 C 79.375 166.480469 79.511719 166.753906 79.691406 167.007812 C 80.003906 167.472656 80.4375 167.746094 80.988281 167.828125 C 81.949219 167.902344 82.882812 167.414062 83.710938 166.875 C 84.675781 166.269531 85.5625 167.796875 84.613281 168.410156 Z M 80.046875 140.070312 C 80.046875 140.070312 80.800781 135.582031 82.296875 135.582031 C 83.796875 135.582031 85.292969 140.070312 85.292969 140.070312 Z M 95.433594 155.050781 C 95.878906 155.050781 96.3125 155.136719 96.726562 155.308594 C 97.140625 155.476562 97.503906 155.71875 97.820312 156.035156 C 98.140625 156.351562 98.382812 156.714844 98.554688 157.128906 C 98.726562 157.539062 98.8125 157.96875 98.8125 158.417969 C 98.8125 158.863281 98.726562 159.292969 98.558594 159.707031 C 98.386719 160.117188 98.140625 160.484375 97.824219 160.800781 C 97.507812 161.113281 97.144531 161.359375 96.730469 161.53125 C 96.316406 161.699219 95.886719 161.785156 95.4375 161.785156 C 94.988281 161.785156 94.558594 161.703125 94.144531 161.53125 C 93.730469 161.359375 93.363281 161.117188 93.046875 160.800781 C 92.730469 160.484375 92.488281 160.121094 92.316406 159.707031 C 92.144531 159.296875 92.058594 158.867188 92.058594 158.417969 C 92.058594 157.972656 92.144531 157.542969 92.316406 157.132812 C 92.488281 156.71875 92.730469 156.355469 93.046875 156.039062 C 93.363281 155.722656 93.726562 155.480469 94.140625 155.308594 C 94.554688 155.136719 94.984375 155.050781 95.433594 155.050781 Z M 100.246094 177.582031 C 100.136719 177.679688 100.011719 177.730469 99.863281 177.730469 C 99.714844 177.730469 99.589844 177.679688 99.480469 177.582031 C 96.65625 175.402344 93.734375 173.363281 90.71875 171.460938 C 90.136719 171.105469 90.675781 170.160156 91.265625 170.53125 C 94.351562 172.480469 97.339844 174.574219 100.226562 176.8125 C 100.328125 176.917969 100.378906 177.042969 100.378906 177.1875 C 100.378906 177.335938 100.328125 177.460938 100.226562 177.566406 Z M 100.511719 172.46875 L 92.285156 169.460938 C 91.636719 169.226562 91.925781 168.1875 92.570312 168.429688 L 100.796875 171.433594 C 101.429688 171.65625 101.15625 172.695312 100.496094 172.457031 Z M 103.660156 167.5 C 100.351562 167.726562 97.054688 167.609375 93.769531 167.144531 C 93.085938 167.050781 93.378906 166.015625 94.054688 166.109375 C 97.246094 166.550781 100.449219 166.660156 103.660156 166.433594 C 104.355469 166.382812 104.351562 167.453125 103.660156 167.5 Z M 110.035156 148.308594 L 105.535156 144.570312 C 105.535156 144.570312 109.289062 141.578125 110.035156 143.074219 C 110.785156 144.566406 110.039062 148.308594 110.039062 148.308594 Z M 123.445312 188.429688 C 122.167969 189.042969 120.820312 189.308594 119.402344 189.222656 C 119.253906 189.21875 119.128906 189.167969 119.023438 189.0625 C 118.921875 188.957031 118.867188 188.832031 118.867188 188.6875 C 118.867188 188.539062 118.917969 188.410156 119.023438 188.308594 C 119.128906 188.203125 119.253906 188.152344 119.402344 188.152344 C 120.625 188.234375 121.785156 188.019531 122.894531 187.5 C 123.023438 187.441406 123.152344 187.429688 123.289062 187.46875 C 123.421875 187.511719 123.527344 187.59375 123.597656 187.714844 C 123.667969 187.835938 123.691406 187.964844 123.660156 188.101562 C 123.628906 188.238281 123.554688 188.347656 123.4375 188.429688 Z M 125.027344 183.078125 C 124.394531 183.660156 123.648438 183.976562 122.789062 184.019531 C 122.652344 184.003906 122.539062 183.945312 122.445312 183.84375 C 122.355469 183.742188 122.308594 183.621094 122.308594 183.484375 C 122.308594 183.347656 122.355469 183.230469 122.445312 183.125 C 122.539062 183.023438 122.652344 182.964844 122.789062 182.949219 L 122.957031 182.949219 C 123.082031 182.929688 123.199219 182.902344 123.316406 182.863281 C 123.382812 182.863281 123.449219 182.824219 123.515625 182.800781 L 123.558594 182.78125 L 123.609375 182.757812 C 123.734375 182.695312 123.855469 182.628906 123.96875 182.550781 L 124.066406 182.484375 L 124.230469 182.347656 C 124.335938 182.246094 124.460938 182.195312 124.609375 182.195312 C 124.753906 182.195312 124.882812 182.246094 124.988281 182.347656 C 125.085938 182.445312 125.140625 182.5625 125.148438 182.699219 C 125.15625 182.839844 125.117188 182.964844 125.03125 183.070312 Z M 130.613281 185.910156 L 128.320312 186.949219 C 128.191406 187.019531 128.058594 187.035156 127.914062 187 C 127.773438 186.960938 127.664062 186.878906 127.585938 186.757812 C 127.511719 186.628906 127.496094 186.492188 127.53125 186.351562 C 127.570312 186.207031 127.652344 186.097656 127.777344 186.019531 L 130.066406 184.984375 C 130.195312 184.914062 130.332031 184.898438 130.472656 184.933594 C 130.617188 184.972656 130.726562 185.050781 130.804688 185.175781 C 130.878906 185.300781 130.894531 185.4375 130.859375 185.578125 C 130.820312 185.71875 130.742188 185.828125 130.613281 185.902344 Z M 187.269531 164.617188 L 187.226562 164.683594 C 187.15625 164.785156 187.09375 164.890625 187.035156 164.996094 C 187.003906 165.054688 186.972656 165.113281 186.941406 165.179688 C 186.914062 165.242188 186.90625 165.230469 186.910156 165.25 L 186.929688 165.199219 L 186.910156 165.253906 C 186.867188 165.367188 186.828125 165.484375 186.796875 165.609375 C 186.796875 165.671875 186.765625 165.726562 186.757812 165.789062 C 186.75 165.820312 186.742188 165.855469 186.738281 165.886719 C 186.742188 165.945312 186.742188 166.003906 186.738281 166.0625 C 186.738281 166.128906 186.738281 166.1875 186.738281 166.25 C 186.722656 166.382812 186.664062 166.5 186.5625 166.589844 C 186.457031 166.679688 186.339844 166.726562 186.203125 166.726562 C 186.066406 166.726562 185.945312 166.679688 185.84375 166.589844 C 185.738281 166.5 185.679688 166.382812 185.664062 166.25 C 185.675781 165.617188 185.832031 165.019531 186.132812 164.464844 C 186.4375 163.910156 186.855469 163.453125 187.382812 163.101562 C 187.511719 163.015625 187.652344 162.988281 187.804688 163.019531 C 187.960938 163.054688 188.074219 163.140625 188.15625 163.273438 C 188.234375 163.410156 188.25 163.550781 188.207031 163.703125 C 188.160156 163.851562 188.066406 163.960938 187.925781 164.03125 C 187.875 164.058594 187.828125 164.09375 187.78125 164.128906 L 187.757812 164.152344 L 187.695312 164.203125 C 187.601562 164.289062 187.507812 164.378906 187.421875 164.476562 C 187.347656 164.527344 187.3125 164.574219 187.269531 164.617188 Z M 189.636719 168.023438 L 188.53125 170.28125 C 188.460938 170.421875 188.351562 170.511719 188.203125 170.558594 C 188.050781 170.605469 187.910156 170.585938 187.773438 170.507812 C 187.636719 170.429688 187.550781 170.3125 187.519531 170.160156 C 187.484375 170.007812 187.511719 169.867188 187.601562 169.738281 L 188.707031 167.484375 C 188.785156 167.367188 188.894531 167.292969 189.035156 167.261719 C 189.171875 167.230469 189.300781 167.253906 189.421875 167.324219 C 189.546875 167.394531 189.628906 167.496094 189.667969 167.632812 C 189.710938 167.769531 189.699219 167.898438 189.636719 168.023438 Z M 191.863281 163.152344 C 191.785156 163.277344 191.671875 163.359375 191.53125 163.394531 C 191.386719 163.429688 191.253906 163.414062 191.125 163.339844 C 190.996094 163.265625 190.914062 163.15625 190.878906 163.015625 C 190.839844 162.875 190.859375 162.738281 190.929688 162.609375 C 191.054688 162.414062 191.164062 162.214844 191.261719 162.003906 L 191.289062 161.9375 C 191.308594 161.886719 191.328125 161.839844 191.347656 161.792969 C 191.382812 161.691406 191.417969 161.589844 191.445312 161.488281 C 191.511719 161.28125 191.5625 161.074219 191.597656 160.863281 C 191.597656 160.863281 191.597656 160.734375 191.597656 160.730469 C 191.597656 160.691406 191.597656 160.65625 191.597656 160.617188 C 191.597656 160.503906 191.605469 160.382812 191.617188 160.257812 C 191.617188 160.113281 191.671875 159.984375 191.777344 159.882812 C 191.878906 159.777344 192.007812 159.726562 192.15625 159.726562 C 192.304688 159.726562 192.429688 159.777344 192.535156 159.882812 C 192.640625 159.984375 192.691406 160.113281 192.691406 160.257812 C 192.675781 161.296875 192.398438 162.261719 191.863281 163.152344 Z M 142.589844 194.957031 Z M 142.589844 194.984375 L 142.589844 195.027344 C 142.589844 195.074219 142.589844 195.109375 142.589844 195.046875 C 142.589844 195.03125 142.59375 195.015625 142.597656 195.003906 Z M 157.828125 187.375 C 155.582031 190.289062 152.984375 193.160156 149.761719 195.011719 C 148.792969 195.585938 147.753906 196.003906 146.652344 196.253906 C 146.269531 196.34375 145.875 196.394531 145.480469 196.398438 C 145.289062 196.398438 145.089844 196.398438 144.898438 196.398438 C 144.753906 196.398438 144.613281 196.378906 144.476562 196.339844 C 144.320312 196.308594 144.175781 196.273438 144.027344 196.230469 C 143.882812 196.1875 143.671875 196.105469 143.671875 196.105469 C 143.546875 196.046875 143.425781 195.988281 143.3125 195.917969 C 143.199219 195.851562 143.105469 195.769531 143.085938 195.761719 L 142.851562 195.542969 C 142.828125 195.515625 142.800781 195.496094 142.777344 195.472656 C 142.761719 195.445312 142.75 195.417969 142.734375 195.386719 C 142.703125 195.335938 142.675781 195.277344 142.644531 195.222656 C 142.609375 195.171875 142.609375 195.113281 142.585938 195.042969 L 142.585938 194.964844 C 142.585938 194.921875 142.648438 194.8125 142.585938 194.933594 C 142.585938 194.945312 142.585938 194.953125 142.585938 194.964844 C 142.589844 194.925781 142.597656 194.890625 142.609375 194.851562 C 142.609375 194.851562 142.699219 194.773438 142.609375 194.851562 C 142.625 194.824219 142.640625 194.792969 142.660156 194.769531 C 142.78125 194.597656 142.886719 194.417969 142.984375 194.234375 C 143.59375 193.078125 144.125 191.886719 144.582031 190.664062 C 145.386719 188.628906 146.117188 186.558594 146.800781 184.480469 C 150.890625 182.371094 154.753906 179.914062 158.398438 177.109375 C 158.839844 176.773438 159.269531 176.425781 159.695312 176.078125 C 159.695312 176.125 159.695312 176.179688 159.695312 176.230469 C 159.535156 178.28125 159.25 180.324219 158.902344 182.355469 C 158.59375 184.039062 158.257812 185.730469 157.835938 187.375 Z M 142.589844 194.976562 L 142.589844 194.960938 Z M 77.277344 186.085938 C 76.753906 186.269531 76.292969 186.554688 75.894531 186.941406 C 75.5625 186.984375 75.234375 187.019531 74.898438 187.054688 C 73.875 187.164062 72.847656 187.25 71.816406 187.3125 C 69.382812 187.457031 66.789062 187.59375 64.402344 187.027344 C 62.160156 186.492188 60.050781 184.53125 59.695312 182.191406 C 59.546875 181.234375 59.847656 180.472656 60.734375 180.050781 C 61.820312 179.570312 62.945312 179.214844 64.105469 178.980469 C 66.03125 178.535156 67.972656 178.199219 69.933594 177.96875 C 73.109375 180.660156 77.027344 182.382812 81.023438 183.449219 C 82.199219 183.761719 83.402344 184.039062 84.601562 184.253906 L 83.269531 184.6875 C 81.753906 185.203125 80.210938 185.605469 78.636719 185.898438 C 78.511719 185.921875 78.734375 185.898438 78.488281 185.898438 L 78.195312 185.917969 C 77.882812 185.933594 77.578125 185.992188 77.277344 186.085938 Z M 77.277344 186.085938 " fill-opacity="1" fill-rule="nonzero"/><path fill="#dfe6f0" d="M 85.292969 140.070312 L 80.046875 140.070312 C 80.046875 140.070312 80.800781 135.582031 82.296875 135.582031 C 83.796875 135.582031 85.292969 140.070312 85.292969 140.070312 Z M 110.039062 143.058594 C 109.292969 141.566406 105.539062 144.558594 105.539062 144.558594 L 110.039062 148.296875 C 110.039062 148.296875 110.792969 144.570312 110.039062 143.074219 Z M 110.039062 143.058594 " fill-opacity="1" fill-rule="nonzero"/><path fill="#7f7cae" d="M 138.527344 128.234375 C 139.632812 132.265625 144.09375 149.234375 140.789062 150.554688 C 137.488281 151.875 131.128906 137 129.589844 133.300781 C 132.4375 131.386719 135.417969 129.699219 138.527344 128.234375 Z M 145.304688 125.53125 C 146.550781 129.289062 151.746094 144.289062 155.039062 142.328125 C 158.242188 140.410156 156.644531 126.988281 156.113281 123.117188 C 152.433594 123.574219 148.828125 124.378906 145.304688 125.53125 Z M 165.046875 122.675781 C 165.929688 127.003906 168.894531 140.714844 170.789062 140.085938 C 172.683594 139.453125 174.589844 127.109375 175.0625 123.734375 C 172.601562 123.265625 170.125 122.953125 167.628906 122.792969 C 166.769531 122.734375 165.914062 122.703125 165.046875 122.675781 Z M 219.785156 95.285156 Z M 219.960938 93.304688 C 219.855469 93.203125 219.730469 93.148438 219.582031 93.148438 C 219.433594 93.148438 219.308594 93.203125 219.203125 93.304688 C 219.097656 93.410156 219.046875 93.535156 219.046875 93.683594 C 219.046875 93.832031 219.097656 93.957031 219.203125 94.0625 L 219.308594 94.183594 L 219.335938 94.210938 L 219.351562 94.238281 C 219.417969 94.332031 219.480469 94.429688 219.535156 94.527344 L 219.609375 94.675781 C 219.609375 94.675781 219.609375 94.710938 219.609375 94.714844 C 219.652344 94.824219 219.6875 94.933594 219.714844 95.046875 C 219.714844 95.101562 219.738281 95.148438 219.75 95.203125 L 219.75 95.265625 C 219.75 95.34375 219.75 95.265625 219.75 95.265625 C 219.753906 95.375 219.761719 95.480469 219.773438 95.585938 C 219.773438 95.636719 219.773438 95.691406 219.773438 95.75 C 219.777344 95.78125 219.777344 95.816406 219.773438 95.847656 C 219.773438 95.847656 219.773438 95.890625 219.773438 95.902344 C 219.773438 95.914062 219.773438 95.957031 219.773438 95.980469 C 219.773438 96.007812 219.75 96.101562 219.734375 96.160156 C 219.695312 96.300781 219.710938 96.4375 219.785156 96.566406 C 219.859375 96.695312 219.96875 96.78125 220.109375 96.820312 C 220.253906 96.859375 220.390625 96.84375 220.519531 96.769531 C 220.648438 96.695312 220.734375 96.585938 220.773438 96.445312 C 220.910156 95.886719 220.910156 95.328125 220.765625 94.773438 C 220.621094 94.214844 220.351562 93.726562 219.957031 93.304688 Z M 220.152344 101.835938 C 220.011719 101.796875 219.878906 101.8125 219.75 101.882812 C 219.625 101.949219 219.539062 102.054688 219.492188 102.191406 L 218.707031 104.796875 C 218.667969 104.941406 218.683594 105.078125 218.753906 105.210938 C 218.828125 105.339844 218.9375 105.429688 219.082031 105.46875 C 219.222656 105.507812 219.355469 105.488281 219.480469 105.421875 C 219.609375 105.351562 219.695312 105.25 219.742188 105.113281 L 220.527344 102.503906 C 220.566406 102.359375 220.550781 102.222656 220.476562 102.09375 C 220.402344 101.960938 220.292969 101.875 220.148438 101.835938 Z M 217.871094 97.695312 C 217.730469 97.738281 217.625 97.824219 217.550781 97.953125 C 217.480469 98.078125 217.460938 98.214844 217.496094 98.355469 C 217.574219 98.875 217.589844 99.398438 217.546875 99.921875 C 217.488281 100.445312 217.367188 100.953125 217.1875 101.449219 C 217.148438 101.59375 217.167969 101.726562 217.238281 101.855469 C 217.3125 101.984375 217.421875 102.070312 217.5625 102.109375 C 217.703125 102.144531 217.835938 102.128906 217.964844 102.0625 C 218.09375 101.992188 218.179688 101.890625 218.226562 101.753906 C 218.644531 100.558594 218.746094 99.335938 218.527344 98.089844 C 218.488281 97.945312 218.40625 97.832031 218.277344 97.757812 C 218.148438 97.679688 218.011719 97.660156 217.867188 97.695312 Z M 122.90625 187.511719 C 121.796875 188.03125 120.632812 188.246094 119.414062 188.160156 C 119.265625 188.160156 119.140625 188.214844 119.035156 188.316406 C 118.929688 188.421875 118.875 188.546875 118.875 188.695312 C 118.878906 188.84375 118.933594 188.96875 119.035156 189.074219 C 119.140625 189.175781 119.265625 189.230469 119.414062 189.230469 C 120.828125 189.316406 122.171875 189.050781 123.449219 188.441406 C 123.566406 188.359375 123.640625 188.25 123.671875 188.113281 C 123.699219 187.976562 123.679688 187.847656 123.609375 187.722656 C 123.539062 187.601562 123.433594 187.519531 123.300781 187.480469 C 123.164062 187.441406 123.03125 187.449219 122.90625 187.511719 Z M 130.0625 184.988281 L 127.769531 186.023438 C 127.644531 186.101562 127.5625 186.210938 127.523438 186.351562 C 127.488281 186.496094 127.503906 186.632812 127.578125 186.757812 C 127.65625 186.882812 127.765625 186.964844 127.90625 187.003906 C 128.050781 187.039062 128.1875 187.023438 128.316406 186.953125 L 130.605469 185.914062 C 130.734375 185.839844 130.816406 185.730469 130.851562 185.585938 C 130.890625 185.441406 130.871094 185.308594 130.796875 185.179688 C 130.722656 185.058594 130.613281 184.976562 130.472656 184.9375 C 130.335938 184.898438 130.199219 184.910156 130.070312 184.976562 Z M 124.261719 182.320312 L 124.101562 182.457031 L 124 182.527344 C 123.886719 182.601562 123.765625 182.671875 123.640625 182.730469 L 123.59375 182.757812 L 123.550781 182.773438 C 123.480469 182.800781 123.417969 182.820312 123.347656 182.839844 C 123.230469 182.875 123.113281 182.90625 122.992188 182.925781 L 122.820312 182.925781 C 122.683594 182.941406 122.570312 183 122.476562 183.101562 C 122.386719 183.203125 122.339844 183.324219 122.339844 183.460938 C 122.339844 183.597656 122.386719 183.714844 122.476562 183.820312 C 122.570312 183.921875 122.683594 183.980469 122.820312 183.996094 C 123.679688 183.949219 124.425781 183.636719 125.058594 183.054688 C 125.164062 182.949219 125.214844 182.820312 125.214844 182.671875 C 125.214844 182.523438 125.164062 182.398438 125.058594 182.292969 C 124.949219 182.183594 124.816406 182.132812 124.660156 182.136719 C 124.507812 182.140625 124.378906 182.199219 124.273438 182.3125 Z M 192.175781 159.75 C 192.027344 159.75 191.902344 159.804688 191.800781 159.910156 C 191.695312 160.011719 191.640625 160.136719 191.640625 160.285156 C 191.640625 160.398438 191.632812 160.519531 191.617188 160.640625 C 191.621094 160.679688 191.621094 160.71875 191.617188 160.753906 C 191.617188 160.753906 191.617188 160.871094 191.617188 160.886719 C 191.582031 161.097656 191.53125 161.308594 191.46875 161.511719 C 191.4375 161.617188 191.402344 161.714844 191.367188 161.820312 C 191.367188 161.863281 191.328125 161.910156 191.3125 161.960938 L 191.28125 162.027344 C 191.183594 162.238281 191.074219 162.441406 190.953125 162.636719 C 190.878906 162.761719 190.863281 162.898438 190.898438 163.039062 C 190.9375 163.183594 191.019531 163.292969 191.144531 163.367188 C 191.273438 163.4375 191.410156 163.457031 191.550781 163.417969 C 191.695312 163.382812 191.804688 163.300781 191.882812 163.175781 C 192.429688 162.296875 192.71875 161.335938 192.746094 160.300781 C 192.753906 160.140625 192.699219 160.007812 192.589844 159.894531 C 192.480469 159.785156 192.34375 159.734375 192.1875 159.738281 Z M 189.433594 167.300781 C 189.304688 167.230469 189.167969 167.210938 189.023438 167.25 C 188.882812 167.289062 188.773438 167.367188 188.695312 167.492188 L 187.589844 169.75 C 187.5 169.878906 187.472656 170.019531 187.507812 170.171875 C 187.542969 170.324219 187.625 170.441406 187.761719 170.519531 C 187.898438 170.597656 188.039062 170.613281 188.191406 170.570312 C 188.339844 170.523438 188.449219 170.429688 188.519531 170.289062 L 189.625 168.035156 C 189.699219 167.90625 189.71875 167.769531 189.683594 167.625 C 189.648438 167.480469 189.570312 167.371094 189.441406 167.289062 Z M 187.738281 164.160156 L 187.761719 164.136719 C 187.804688 164.097656 187.855469 164.066406 187.90625 164.039062 C 188.046875 163.96875 188.140625 163.859375 188.183594 163.710938 C 188.230469 163.558594 188.214844 163.417969 188.132812 163.28125 C 188.054688 163.144531 187.9375 163.0625 187.785156 163.027344 C 187.632812 162.992188 187.488281 163.019531 187.359375 163.109375 C 186.832031 163.460938 186.417969 163.914062 186.113281 164.472656 C 185.808594 165.027344 185.652344 165.621094 185.644531 166.257812 C 185.660156 166.390625 185.71875 166.503906 185.820312 166.597656 C 185.921875 166.6875 186.042969 166.734375 186.179688 166.734375 C 186.316406 166.734375 186.4375 166.6875 186.539062 166.597656 C 186.640625 166.503906 186.699219 166.390625 186.71875 166.257812 C 186.71875 166.195312 186.71875 166.132812 186.71875 166.070312 C 186.722656 166.011719 186.722656 165.953125 186.71875 165.894531 C 186.722656 165.863281 186.726562 165.828125 186.734375 165.796875 C 186.734375 165.734375 186.761719 165.679688 186.773438 165.617188 C 186.804688 165.5 186.847656 165.382812 186.886719 165.261719 L 186.910156 165.207031 L 186.886719 165.257812 C 186.886719 165.238281 186.914062 165.199219 186.921875 165.1875 C 186.929688 165.171875 186.980469 165.0625 187.015625 165.003906 C 187.070312 164.894531 187.132812 164.792969 187.203125 164.691406 L 187.25 164.625 C 187.289062 164.578125 187.324219 164.53125 187.363281 164.492188 C 187.449219 164.394531 187.542969 164.304688 187.640625 164.21875 Z M 187.738281 164.160156 " fill-opacity="1" fill-rule="nonzero"/><path fill="#4d1339" d="M 73.664062 157.28125 C 73.21875 157.28125 72.789062 157.195312 72.375 157.023438 C 71.960938 156.851562 71.597656 156.609375 71.28125 156.292969 C 70.964844 155.976562 70.722656 155.613281 70.550781 155.203125 C 70.378906 154.789062 70.296875 154.359375 70.296875 153.914062 C 70.296875 153.46875 70.382812 153.039062 70.554688 152.628906 C 70.722656 152.214844 70.96875 151.851562 71.285156 151.539062 C 71.601562 151.222656 71.964844 150.980469 72.378906 150.808594 C 72.792969 150.640625 73.222656 150.554688 73.671875 150.554688 C 74.117188 150.554688 74.546875 150.640625 74.960938 150.808594 C 75.375 150.980469 75.738281 151.222656 76.054688 151.539062 C 76.371094 151.855469 76.613281 152.21875 76.785156 152.628906 C 76.957031 153.042969 77.042969 153.472656 77.042969 153.917969 C 77.042969 154.363281 76.957031 154.792969 76.785156 155.207031 C 76.613281 155.617188 76.371094 155.980469 76.054688 156.296875 C 75.738281 156.613281 75.371094 156.855469 74.957031 157.027344 C 74.542969 157.195312 74.113281 157.28125 73.664062 157.28125 Z M 95.433594 161.769531 C 95.878906 161.769531 96.3125 161.683594 96.726562 161.511719 C 97.140625 161.34375 97.503906 161.101562 97.824219 160.785156 C 98.140625 160.46875 98.382812 160.105469 98.554688 159.691406 C 98.726562 159.277344 98.8125 158.847656 98.8125 158.402344 C 98.8125 157.957031 98.726562 157.527344 98.554688 157.113281 C 98.386719 156.699219 98.140625 156.335938 97.824219 156.019531 C 97.507812 155.703125 97.140625 155.460938 96.726562 155.289062 C 96.3125 155.121094 95.882812 155.035156 95.433594 155.035156 C 94.988281 155.035156 94.554688 155.121094 94.140625 155.289062 C 93.726562 155.460938 93.363281 155.707031 93.046875 156.023438 C 92.730469 156.339844 92.484375 156.703125 92.3125 157.117188 C 92.144531 157.527344 92.058594 157.957031 92.058594 158.40625 C 92.058594 158.851562 92.144531 159.28125 92.316406 159.691406 C 92.488281 160.101562 92.730469 160.46875 93.046875 160.78125 C 93.363281 161.097656 93.730469 161.339844 94.140625 161.511719 C 94.554688 161.683594 94.984375 161.769531 95.433594 161.769531 Z M 83.71875 166.890625 C 82.890625 167.429688 81.957031 167.917969 80.996094 167.84375 C 80.441406 167.757812 80.011719 167.484375 79.699219 167.023438 C 79.519531 166.769531 79.382812 166.496094 79.285156 166.203125 C 79.230469 166.039062 79.183594 165.875 79.144531 165.707031 C 79.144531 165.621094 79.109375 165.539062 79.09375 165.457031 L 79.070312 165.316406 C 79.039062 164.984375 79.039062 164.65625 79.070312 164.324219 C 79.070312 164.324219 79.070312 164.238281 79.070312 164.203125 C 79.078125 164.15625 79.085938 164.109375 79.101562 164.0625 C 79.121094 163.980469 79.269531 163.558594 79.167969 163.792969 C 79.609375 162.777344 78.238281 161.902344 77.640625 162.902344 C 77.148438 163.730469 76.519531 164.898438 75.429688 164.964844 C 74.339844 165.03125 74.394531 163.652344 74.425781 162.886719 C 74.472656 161.75 72.707031 161.75 72.660156 162.886719 C 72.625 163.742188 72.640625 164.667969 73.070312 165.433594 C 73.285156 165.804688 73.574219 166.105469 73.941406 166.332031 C 74.304688 166.5625 74.703125 166.691406 75.132812 166.71875 C 75.980469 166.789062 76.730469 166.550781 77.382812 166.007812 C 77.527344 166.75 77.820312 167.429688 78.257812 168.046875 C 78.558594 168.480469 78.933594 168.828125 79.386719 169.097656 C 79.839844 169.367188 80.328125 169.53125 80.847656 169.589844 C 82.191406 169.734375 83.507812 169.125 84.605469 168.410156 C 85.5625 167.796875 84.675781 166.269531 83.71875 166.890625 Z M 91.265625 170.53125 C 90.675781 170.175781 90.136719 171.089844 90.71875 171.460938 C 93.726562 173.363281 96.644531 175.398438 99.464844 177.566406 C 99.570312 177.667969 99.699219 177.71875 99.84375 177.71875 C 99.992188 177.71875 100.117188 177.667969 100.226562 177.566406 C 100.332031 177.460938 100.382812 177.335938 100.382812 177.1875 C 100.382812 177.039062 100.332031 176.914062 100.226562 176.808594 C 97.339844 174.578125 94.351562 172.488281 91.265625 170.53125 Z M 100.78125 171.421875 L 92.550781 168.414062 C 91.902344 168.175781 91.617188 169.214844 92.265625 169.449219 L 100.496094 172.457031 C 101.15625 172.695312 101.429688 171.65625 100.796875 171.421875 Z M 103.664062 166.425781 C 100.449219 166.652344 97.25 166.542969 94.058594 166.101562 C 93.382812 166.011719 93.089844 167.042969 93.773438 167.136719 C 97.058594 167.601562 100.355469 167.71875 103.664062 167.492188 C 104.351562 167.453125 104.355469 166.382812 103.660156 166.429688 Z M 142.601562 194.917969 C 142.597656 194.925781 142.597656 194.9375 142.601562 194.945312 C 142.613281 194.90625 142.65625 194.800781 142.601562 194.921875 Z M 142.601562 194.980469 L 142.601562 195.023438 L 142.601562 194.972656 Z M 142.625 194.824219 C 142.625 194.824219 142.703125 194.765625 142.621094 194.828125 Z M 142.601562 194.945312 Z M 224.351562 106.980469 C 223.714844 109.851562 222.742188 112.605469 221.433594 115.238281 C 220.121094 117.875 218.515625 120.3125 216.609375 122.554688 C 214.378906 125.160156 211.707031 127.351562 208.9375 129.363281 C 206.703125 131.007812 204.335938 132.425781 201.824219 133.617188 C 200.226562 134.417969 198.558594 135.019531 196.816406 135.421875 C 199.796875 140.652344 200.4375 146.863281 199.570312 152.804688 C 198.917969 157.265625 197.398438 161.542969 195.613281 165.675781 C 193.828125 169.933594 191.511719 173.882812 188.671875 177.523438 C 186.832031 179.78125 184.800781 181.84375 182.566406 183.714844 C 181.800781 184.371094 181.019531 185.011719 180.296875 185.710938 C 180 185.996094 179.722656 186.292969 179.453125 186.605469 L 179.363281 186.71875 L 179.222656 186.921875 C 179.121094 187.070312 179.027344 187.230469 178.941406 187.390625 C 178.902344 187.464844 178.867188 187.539062 178.832031 187.617188 L 178.796875 187.71875 C 178.683594 188.042969 178.554688 188.359375 178.417969 188.671875 C 178.046875 189.480469 177.601562 190.25 177.085938 190.976562 C 175.839844 192.75 174.410156 194.363281 172.792969 195.8125 C 169.667969 198.644531 165.695312 201.347656 161.289062 201.109375 C 159.453125 201.011719 157.335938 200.613281 156.070312 199.15625 C 154.941406 197.84375 154.863281 196.082031 155.300781 194.476562 C 155.605469 193.550781 155.972656 192.652344 156.410156 191.78125 C 154.464844 193.894531 152.261719 195.796875 149.691406 197.019531 C 147.839844 197.902344 145.636719 198.5 143.609375 197.898438 C 142.390625 197.542969 141.132812 196.664062 140.886719 195.34375 C 140.75 194.601562 141.035156 194.070312 141.390625 193.453125 C 142.035156 192.261719 142.585938 191.03125 143.042969 189.757812 C 143.585938 188.367188 144.09375 186.964844 144.578125 185.550781 C 139.910156 187.789062 135.105469 189.691406 130.167969 191.257812 C 120.757812 194.246094 111.140625 196.257812 101.320312 197.292969 C 97.542969 197.703125 93.746094 197.972656 89.949219 198.007812 C 87.324219 198.085938 84.714844 197.945312 82.117188 197.585938 C 78.675781 197.082031 74.683594 195.175781 74.324219 191.3125 C 74.25 190.460938 74.367188 189.636719 74.683594 188.84375 C 73.199219 188.996094 71.714844 189.097656 70.222656 189.144531 C 67.601562 189.226562 64.566406 189.304688 62.175781 188.074219 C 59.789062 186.84375 57.507812 183.894531 57.949219 181.089844 C 58.390625 178.289062 61.859375 177.675781 64.167969 177.167969 C 65.535156 176.867188 66.921875 176.625 68.3125 176.425781 C 65.238281 173.101562 63.6875 168.835938 63.386719 164.328125 L 58.917969 163.648438 C 58.234375 163.546875 58.527344 162.511719 59.203125 162.613281 L 63.335938 163.257812 C 63.335938 163.09375 63.335938 162.929688 63.335938 162.765625 C 63.332031 161.734375 63.402344 160.710938 63.542969 159.6875 L 58.453125 156.925781 C 57.84375 156.59375 58.390625 155.667969 58.996094 155.996094 L 63.730469 158.570312 C 63.917969 157.601562 64.164062 156.652344 64.472656 155.714844 L 60.683594 152.304688 C 60.167969 151.839844 60.929688 151.085938 61.445312 151.546875 L 64.867188 154.628906 C 65.769531 152.300781 67.015625 150.171875 68.597656 148.242188 C 70.046875 146.421875 71.746094 144.875 73.699219 143.605469 C 74.128906 142.417969 74.617188 141.246094 75.128906 140.089844 C 75.976562 138.042969 76.996094 136.082031 78.1875 134.214844 C 79.101562 132.824219 80.371094 131.003906 82.125 130.644531 C 84.40625 130.183594 86.480469 132.144531 87.757812 133.773438 C 88.648438 134.902344 89.40625 136.117188 90.03125 137.414062 C 91.566406 137.671875 93.097656 137.972656 94.621094 138.300781 C 96.886719 138.785156 99.269531 139.265625 101.417969 140.21875 C 103.257812 139.320312 105.140625 138.496094 107.054688 137.785156 C 108.261719 137.296875 109.5 136.933594 110.777344 136.683594 C 111.699219 136.53125 112.523438 136.480469 113.28125 137.109375 C 114.710938 138.308594 115.3125 140.574219 115.8125 142.285156 C 115.851562 142.40625 115.882812 142.53125 115.914062 142.640625 C 120.128906 138.105469 124.859375 134.183594 130.101562 130.886719 C 135.347656 127.585938 140.933594 125.015625 146.855469 123.175781 C 151.671875 121.789062 156.589844 121.015625 161.605469 120.851562 C 166.617188 120.6875 171.574219 121.140625 176.472656 122.214844 C 181.652344 123.339844 186.773438 125.359375 190.929688 128.632812 C 197.121094 126.644531 203.835938 122.539062 206.59375 116.300781 C 207.667969 113.84375 207.894531 111.238281 207.851562 108.585938 C 207.78125 105.722656 207.398438 102.902344 206.695312 100.125 C 205.757812 96.296875 203.929688 92.097656 205.121094 88.125 C 206.375 83.9375 210.265625 80.953125 214.710938 81.707031 C 219.605469 82.53125 223.046875 87.054688 224.324219 91.566406 C 225.714844 96.53125 225.46875 102.003906 224.347656 106.984375 Z M 204.230469 130.351562 C 209.597656 127.171875 214.628906 123.019531 218.011719 117.722656 C 220.996094 113.027344 222.765625 107.914062 223.3125 102.382812 C 223.789062 97.566406 223.496094 92.074219 220.730469 87.925781 C 218.628906 84.78125 214.351562 82.035156 210.542969 83.953125 C 209.675781 84.425781 208.921875 85.039062 208.292969 85.800781 C 207.660156 86.558594 207.191406 87.410156 206.882812 88.347656 C 206.34375 89.96875 206.425781 91.65625 206.75 93.308594 C 207.167969 95.394531 207.824219 97.425781 208.339844 99.488281 C 209.023438 102.175781 209.429688 104.90625 209.558594 107.675781 C 209.675781 110.355469 209.578125 113.09375 208.707031 115.652344 C 207.980469 117.730469 206.90625 119.613281 205.488281 121.304688 C 203.027344 124.3125 199.71875 126.601562 196.257812 128.324219 C 195.019531 128.949219 193.746094 129.507812 192.445312 129.988281 C 193.59375 131.046875 194.625 132.207031 195.539062 133.46875 C 195.617188 133.570312 195.691406 133.679688 195.765625 133.785156 L 196.027344 133.742188 C 196.246094 133.703125 196.464844 133.652344 196.683594 133.601562 C 197.332031 133.445312 197.96875 133.257812 198.59375 133.035156 C 200.5625 132.328125 202.441406 131.433594 204.230469 130.351562 Z M 198.148438 146.636719 C 197.875 140.304688 195.160156 134.46875 190.277344 130.390625 L 190.207031 130.332031 C 185.914062 126.765625 180.550781 124.796875 175.054688 123.734375 C 172.597656 123.265625 170.121094 122.953125 167.621094 122.792969 C 166.761719 122.734375 165.898438 122.703125 165.039062 122.675781 C 162.046875 122.601562 159.066406 122.746094 156.09375 123.117188 C 152.414062 123.574219 148.8125 124.378906 145.289062 125.53125 C 143.558594 126.09375 141.855469 126.742188 140.171875 127.476562 C 139.613281 127.714844 139.058594 127.96875 138.507812 128.234375 C 135.398438 129.699219 132.417969 131.386719 129.5625 133.300781 C 127.070312 134.972656 124.691406 136.792969 122.425781 138.765625 C 120.265625 140.585938 118.265625 142.570312 116.417969 144.707031 C 116.832031 146.492188 117.15625 148.273438 117.429688 150.058594 C 117.785156 152.0625 117.992188 154.085938 118.050781 156.121094 C 118.050781 157.257812 116.285156 157.257812 116.28125 156.121094 C 116.28125 155.316406 116.207031 154.507812 116.128906 153.707031 C 115.871094 151.195312 115.480469 148.707031 114.953125 146.242188 C 114.472656 143.984375 113.964844 141.566406 112.875 139.503906 C 112.714844 139.183594 112.523438 138.886719 112.296875 138.609375 C 112.238281 138.546875 112.179688 138.484375 112.113281 138.421875 L 112.074219 138.394531 C 112.039062 138.363281 112 138.335938 111.957031 138.320312 L 111.863281 138.320312 C 111.753906 138.320312 111.644531 138.320312 111.535156 138.335938 C 111.324219 138.355469 111.113281 138.390625 110.90625 138.4375 C 110.292969 138.5625 109.6875 138.726562 109.09375 138.921875 C 106.777344 139.6875 104.53125 140.613281 102.347656 141.699219 C 102.1875 141.777344 102.03125 141.867188 101.863281 141.9375 C 101.253906 142.183594 100.757812 141.816406 100.191406 141.609375 C 98.949219 141.164062 97.6875 140.796875 96.402344 140.503906 C 94.132812 139.953125 91.84375 139.496094 89.542969 139.078125 C 89.042969 139.023438 88.695312 138.765625 88.507812 138.300781 C 88.085938 137.4375 87.609375 136.605469 87.074219 135.804688 C 86.40625 134.734375 85.570312 133.816406 84.570312 133.046875 C 84.09375 132.675781 83.5625 132.4375 82.96875 132.332031 C 82.691406 132.273438 82.421875 132.308594 82.167969 132.4375 C 80.410156 133.277344 79.226562 135.6875 78.339844 137.359375 C 77.328125 139.28125 76.4375 141.253906 75.664062 143.285156 C 75.527344 143.640625 75.410156 144.027344 75.253906 144.378906 C 75.082031 144.726562 74.820312 144.984375 74.46875 145.148438 C 73.433594 145.835938 72.480469 146.621094 71.605469 147.496094 C 69.167969 149.851562 67.371094 152.617188 66.21875 155.800781 L 69.492188 158.746094 C 70.007812 159.210938 69.246094 159.96875 68.734375 159.507812 L 65.875 156.921875 C 65.636719 157.730469 65.453125 158.550781 65.324219 159.386719 L 67.960938 160.8125 C 68.566406 161.144531 68.023438 162.070312 67.414062 161.738281 L 65.179688 160.527344 C 65.085938 161.503906 65.050781 162.480469 65.082031 163.460938 L 67.789062 163.871094 C 68.472656 163.972656 68.179688 165.003906 67.5 164.902344 L 65.148438 164.546875 C 65.503906 168.828125 67.132812 172.910156 70.34375 175.960938 L 70.59375 176.1875 C 70.753906 176.246094 70.871094 176.351562 70.949219 176.503906 C 74.117188 179.246094 78.136719 180.898438 82.175781 181.898438 C 83.054688 182.117188 83.941406 182.300781 84.832031 182.457031 C 85.578125 182.589844 86.191406 182.679688 86.761719 182.746094 C 87.335938 182.8125 87.941406 182.875 88.53125 182.902344 L 89.246094 182.660156 C 91.738281 181.789062 94.21875 180.882812 96.691406 179.949219 C 97.765625 179.546875 98.214844 181.253906 97.160156 181.652344 L 96.621094 181.855469 C 94.136719 182.785156 91.644531 183.691406 89.140625 184.5625 C 89.046875 184.617188 88.949219 184.648438 88.847656 184.664062 L 87.285156 185.195312 C 85.445312 185.820312 83.601562 186.429688 81.730469 186.949219 C 80.546875 187.3125 79.339844 187.546875 78.105469 187.660156 L 78 187.660156 L 77.820312 187.707031 C 77.59375 187.773438 77.820312 187.683594 77.605469 187.800781 C 77.421875 187.886719 77.261719 188.007812 77.125 188.15625 C 76.746094 188.539062 76.464844 188.980469 76.28125 189.480469 C 76.046875 190.117188 75.988281 190.765625 76.097656 191.433594 C 76.210938 192.097656 76.480469 192.695312 76.90625 193.21875 C 78.085938 194.695312 80.066406 195.417969 81.863281 195.785156 C 82.753906 195.972656 83.65625 196.089844 84.566406 196.140625 C 91.429688 196.660156 98.453125 196.007812 105.246094 195.070312 C 114.945312 193.773438 124.402344 191.492188 133.625 188.226562 C 143.035156 184.84375 152.210938 180.230469 159.804688 173.664062 C 159.839844 172.878906 159.890625 172.097656 160.003906 171.3125 C 160.589844 167.253906 162.34375 162.609375 166.214844 160.613281 C 167.226562 160.09375 168.121094 161.617188 167.109375 162.132812 C 165.347656 163.039062 164.144531 164.601562 163.289062 166.347656 C 162.433594 168.152344 161.898438 170.046875 161.675781 172.027344 C 161.601562 172.652344 161.566406 173.28125 161.539062 173.910156 C 161.597656 174.070312 161.597656 174.226562 161.539062 174.386719 C 161.515625 175.144531 161.496094 175.90625 161.425781 176.65625 C 161.109375 180.445312 160.484375 184.183594 159.546875 187.867188 C 159.539062 187.933594 159.523438 187.996094 159.496094 188.058594 C 159.382812 188.488281 159.269531 188.917969 159.140625 189.34375 C 158.882812 190.257812 158.574219 191.152344 158.21875 192.035156 C 157.863281 192.882812 157.414062 193.691406 157.148438 194.5625 C 156.730469 195.839844 156.585938 197.359375 157.738281 198.300781 C 159.070312 199.371094 161.347656 199.53125 162.976562 199.328125 C 164.894531 199.097656 166.699219 198.144531 168.296875 197.109375 C 171.609375 194.972656 174.828125 191.875 176.644531 188.332031 C 177.070312 187.507812 177.289062 186.617188 177.835938 185.855469 C 178.367188 185.160156 178.960938 184.527344 179.625 183.957031 C 181.359375 182.394531 183.179688 180.941406 184.808594 179.273438 C 187.355469 176.636719 189.515625 173.71875 191.296875 170.519531 C 193.734375 166.230469 195.613281 161.714844 196.929688 156.964844 C 197.878906 153.585938 198.292969 150.144531 198.164062 146.636719 Z M 157.835938 187.375 C 158.257812 185.71875 158.59375 184.039062 158.882812 182.355469 C 159.242188 180.324219 159.515625 178.28125 159.675781 176.230469 C 159.675781 176.179688 159.675781 176.125 159.675781 176.078125 C 159.25 176.433594 158.820312 176.773438 158.382812 177.109375 C 154.742188 179.90625 150.878906 182.355469 146.792969 184.457031 C 146.109375 186.535156 145.378906 188.605469 144.574219 190.640625 C 144.117188 191.863281 143.585938 193.050781 142.976562 194.207031 C 142.878906 194.394531 142.773438 194.570312 142.652344 194.742188 C 142.632812 194.769531 142.617188 194.796875 142.605469 194.828125 C 142.589844 194.863281 142.582031 194.902344 142.578125 194.9375 L 142.578125 194.957031 C 142.578125 194.976562 142.578125 194.996094 142.578125 195.015625 C 142.597656 195.082031 142.578125 195.046875 142.578125 195 C 142.601562 195.070312 142.632812 195.15625 142.636719 195.179688 C 142.640625 195.207031 142.695312 195.292969 142.726562 195.34375 C 142.742188 195.375 142.757812 195.402344 142.769531 195.429688 C 142.796875 195.453125 142.820312 195.472656 142.84375 195.5 L 143.078125 195.71875 C 143.097656 195.71875 143.21875 195.824219 143.304688 195.878906 C 143.390625 195.929688 143.542969 196.003906 143.664062 196.0625 C 143.664062 196.0625 143.886719 196.152344 144.019531 196.1875 C 144.152344 196.222656 144.3125 196.265625 144.46875 196.296875 C 144.605469 196.335938 144.746094 196.355469 144.890625 196.355469 C 145.082031 196.355469 145.28125 196.371094 145.472656 196.355469 C 145.871094 196.351562 146.261719 196.300781 146.648438 196.210938 C 147.75 195.960938 148.785156 195.542969 149.753906 194.96875 C 152.988281 193.160156 155.589844 190.289062 157.835938 187.375 Z M 74.898438 187.050781 C 75.234375 187.015625 75.5625 186.980469 75.894531 186.9375 C 76.519531 186.285156 77.285156 185.949219 78.191406 185.9375 L 78.484375 185.917969 C 78.730469 185.917969 78.507812 185.917969 78.636719 185.917969 C 80.210938 185.617188 81.753906 185.207031 83.269531 184.6875 L 84.625 184.257812 C 83.410156 184.046875 82.210938 183.769531 81.046875 183.457031 C 77.042969 182.386719 73.121094 180.667969 69.957031 177.976562 C 67.992188 178.207031 66.050781 178.542969 64.128906 178.988281 C 62.964844 179.222656 61.839844 179.578125 60.757812 180.058594 C 59.871094 180.484375 59.570312 181.246094 59.714844 182.199219 C 60.074219 184.539062 62.179688 186.5 64.425781 187.035156 C 66.8125 187.601562 69.40625 187.464844 71.835938 187.320312 C 72.851562 187.25 73.875 187.160156 74.898438 187.050781 Z M 111.957031 138.363281 C 112 138.363281 112 138.363281 111.957031 138.363281 Z M 111.957031 138.363281 " fill-opacity="1" fill-rule="nonzero"/></svg>